<svg xmlns="http://www.w3.org/2000/svg" width="761" height="510" viewBox="0 0 761 510" fill="none">
  <path fill-rule="evenodd" clip-rule="evenodd" d="M86.8078 330.965L131.991 270.356L222.231 240.095L222.352 240.053L267.533 179.446L357.773 149.183L357.895 149.141L403.073 88.5335L493.312 58.2688L493.434 58.23L536.84 0H535.932L492.827 57.8223L402.587 88.0871L402.465 88.1276L357.287 148.735L267.047 178.998L266.926 179.038L221.745 239.647L131.505 269.908L131.384 269.951L86.2032 330.559L0 359.469V360.079L86.6889 331.006L86.8078 330.965ZM52.9242 35.5024L143.164 5.23765L143.286 5.19706L147.159 0H146.25L142.681 4.79118L52.4411 35.0541L52.3196 35.0947L7.13893 95.7035L0 98.0965V98.7088L7.74617 96.1094L52.9242 35.5024ZM19.038 103.685L64.2214 43.0765L154.459 12.8153L154.58 12.7747L164.103 0H163.192L153.976 12.3671L63.7356 42.63L63.6141 42.6706L18.4334 103.279L0 109.463V110.072L18.9192 103.726L19.038 103.685ZM120.572 171.911L120.694 171.87L165.877 111.261L256.115 80.9982L256.236 80.9576L301.417 20.3506L362.095 0H360.276L300.934 19.9024L300.812 19.9429L255.629 80.5518L165.391 110.815L165.27 110.855L120.089 171.462L29.8494 201.727L29.728 201.768L0 241.648V242.868L30.3352 202.174L120.572 171.911ZM109.278 164.333L109.399 164.294L154.58 103.685L244.82 73.4223L244.939 73.3818L290.122 12.7747L328.209 0H326.39L289.639 12.3265L289.518 12.3671L244.334 72.9759L154.094 103.239L153.976 103.279L108.795 163.886L18.5549 194.149L18.4334 194.19L0 218.921V220.142L19.038 194.598L109.278 164.333ZM131.87 179.486L131.991 179.446L177.169 118.839L267.412 88.5759L267.533 88.5335L312.714 27.9265L395.978 0H394.159L312.228 27.4782L312.107 27.5206L266.926 88.1276L176.686 118.391L176.565 118.431L131.384 179.038L41.1466 209.301L41.0251 209.342L0 264.376V265.597L41.6297 209.749L131.87 179.486ZM30.3352 111.261L75.5159 50.6524L165.756 20.3912L165.875 20.3506L181.045 0H180.137L165.27 19.9429L75.0301 50.2059L74.9113 50.2482L29.728 110.855L0 120.826V121.435L30.2137 111.302L30.3352 111.261ZM97.9835 156.757L98.1049 156.716L143.286 96.1094L233.526 65.8465L233.647 65.8059L278.828 5.19706L294.323 0H292.506L278.342 4.75059L278.22 4.79118L233.042 65.3982L142.8 95.6629L142.681 95.7035L97.4977 156.311L7.26038 186.574L7.13893 186.616L0 196.193V197.412L7.74617 187.022L97.9835 156.757ZM91.0108 0H89.1918L29.8494 19.9024L29.728 19.9429L0 59.8235V61.0447L30.3352 20.3506L91.0108 0ZM124.897 0H123.078L41.1466 27.4782L41.0251 27.5206L0 82.5529V83.7724L41.6297 27.9265L124.897 0V0ZM57.1273 0H55.3083L18.5549 12.3265L18.4334 12.3671L0 37.0976V38.3171L19.038 12.7747L57.1273 0V0ZM86.8078 149.141L131.991 88.5335L222.231 58.2688L222.352 58.23L265.759 0H264.851L221.745 57.8223L131.505 88.0871L131.384 88.1276L86.2032 148.735L0 177.644V178.255L86.6889 149.183L86.8078 149.141ZM52.9242 126.415L98.1049 65.8059L188.345 35.5429L188.466 35.5024L214.931 0H214.02L187.859 35.0947L97.6191 65.3576L97.4977 65.3982L52.3196 126.007L0 143.554V144.164L52.8054 126.455L52.9242 126.415ZM75.5159 141.566L120.694 80.9576L210.937 50.6929L211.055 50.6524L248.815 0H247.904L210.451 50.2482L120.211 80.5112L120.089 80.5518L74.9113 141.159L0 166.281V166.892L75.3944 141.607L75.5159 141.566ZM64.2214 133.991L109.399 73.3818L199.639 43.1188L199.761 43.0765L231.873 0H230.962L199.156 42.6706L108.914 72.9335L108.795 72.9759L63.6141 133.585L0 154.918V155.529L64.0999 134.031L64.2214 133.991ZM41.6297 118.839L86.8078 58.23L177.05 27.9671L177.169 27.9265L197.987 0H197.078L176.565 27.5206L86.3246 57.7818L86.2032 57.8223L41.0251 118.431L0 132.189V132.799L41.5083 118.879L41.6297 118.839ZM19.038 285.51L64.2214 224.901L154.459 194.638L154.58 194.598L199.761 133.991L290.001 103.726L290.122 103.685L335.303 43.0765L425.543 12.8153L425.664 12.7747L435.185 0H434.276L425.057 12.3671L334.817 42.63L334.696 42.6706L289.518 103.279L199.278 133.542L199.156 133.585L153.976 194.19L63.7356 224.453L63.6141 224.495L18.4334 285.102L0 291.284V291.895L18.9192 285.551L19.038 285.51ZM41.6297 482.485L86.8078 421.878L177.05 391.615L177.169 391.572L222.352 330.965L312.592 300.702L312.714 300.662L357.895 240.053L448.132 209.788L448.253 209.749L493.434 149.141L583.674 118.879L583.795 118.839L628.973 58.23L719.213 27.9671L719.335 27.9265L740.152 0H739.241L718.727 27.5206L628.49 57.7818L628.369 57.8223L583.188 118.431L492.948 148.694L492.827 148.735L447.649 209.342L357.409 239.606L357.287 239.647L312.107 300.254L221.867 330.517L221.745 330.559L176.565 391.166L86.3246 421.429L86.2032 421.47L41.0251 482.079L0 495.836V496.445L41.5083 482.525L41.6297 482.485ZM75.5159 323.389L120.694 262.781L210.937 232.518L211.055 232.477L256.236 171.87L346.476 141.607L346.597 141.566L391.778 80.9576L482.018 50.6929L482.139 50.6524L519.899 0H518.988L481.532 50.2482L391.292 80.5112L391.173 80.5518L345.99 141.159L255.75 171.422L255.629 171.462L210.451 232.071L120.211 262.332L120.089 262.373L74.9113 322.982L0 348.106V348.715L75.3944 323.43L75.5159 323.389ZM131.87 361.308L131.991 361.267L177.169 300.662L267.412 270.397L267.533 270.356L312.714 209.749L402.951 179.486L403.073 179.446L448.253 118.839L538.493 88.5759L538.615 88.5335L583.795 27.9265L667.063 0H665.241L583.31 27.4782L583.188 27.5206L538.01 88.1276L447.77 118.391L447.649 118.431L402.465 179.038L312.228 209.301L312.107 209.342L266.926 269.951L176.686 300.214L176.565 300.254L131.384 360.863L41.1466 391.126L41.0251 391.166L0 446.201V447.42L41.6297 391.574L131.87 361.308ZM52.9242 490.061L98.1049 429.454L188.345 399.191L188.466 399.15L233.647 338.541L323.887 308.276L324.008 308.236L369.189 247.629L459.429 217.366L459.55 217.325L504.728 156.716L594.968 126.455L595.09 126.415L640.271 65.8059L730.508 35.5429L730.629 35.5024L757.097 0H756.186L730.025 35.0947L639.785 65.3576L639.663 65.3982L594.483 126.007L504.245 156.27L504.124 156.311L458.943 216.918L368.703 247.182L368.582 247.223L323.401 307.832L233.161 338.095L233.042 338.135L187.859 398.742L97.6191 429.005L97.4977 429.046L52.3196 489.655L0 507.201V507.812L52.8054 490.101L52.9242 490.061ZM120.572 353.735L120.694 353.693L165.875 293.086L256.115 262.821L256.236 262.781L301.417 202.172L391.659 171.911L391.778 171.87L436.959 111.261L527.199 80.9982L527.32 80.9576L572.498 20.3506L633.176 0H631.357L572.015 19.9024L571.894 19.9429L526.713 80.5518L436.473 110.815L436.352 110.855L391.173 171.462L300.934 201.727L300.812 201.768L255.629 262.373L165.391 292.638L165.27 292.678L120.089 353.287L29.8494 383.55L29.728 383.591L0 423.471V424.692L30.3352 383.998L120.572 353.735ZM52.9242 399.15L143.164 368.885L143.286 368.845L188.466 308.236L278.706 277.973L278.828 277.932L324.008 217.325L414.246 187.062L414.367 187.022L459.55 126.415L549.79 96.1518L549.909 96.1094L595.09 35.5024L685.33 5.23765L685.451 5.19706L689.324 0H688.416L684.844 4.79118L594.604 35.0541L594.483 35.0947L549.305 95.7035L459.062 125.966L458.943 126.007L413.76 186.616L323.523 216.877L323.401 216.918L278.22 277.525L187.98 307.791L187.859 307.832L142.681 368.437L52.4411 398.702L52.3196 398.742L7.13893 459.353L0 461.744V462.355L7.74617 459.757L52.9242 399.15ZM19.038 467.333L64.2214 406.726L154.459 376.461L154.58 376.421L199.761 315.814L290.001 285.551L290.122 285.51L335.303 224.901L425.543 194.638L425.664 194.598L470.842 133.991L561.082 103.726L561.204 103.685L606.384 43.0765L696.624 12.8153L696.746 12.7747L706.269 0H705.358L696.141 12.3671L605.901 42.63L605.78 42.6706L560.596 103.279L470.359 133.542L470.238 133.585L425.057 194.19L334.817 224.453L334.696 224.495L289.518 285.102L199.278 315.365L199.156 315.406L153.976 376.015L63.7356 406.278L63.6141 406.318L18.4334 466.927L0 473.111V473.719L18.9192 467.372L19.038 467.333ZM30.3352 474.909L75.5185 414.3L165.756 384.037L165.875 383.996L211.055 323.389L301.298 293.126L301.417 293.086L346.597 232.477L436.837 202.216L436.959 202.172L482.139 141.566L572.377 111.302L572.498 111.261L617.681 50.6524L707.921 20.3912L708.04 20.3506L723.21 0H722.3L707.436 19.9429L617.193 50.2059L617.074 50.2482L571.894 110.855L481.654 141.118L481.532 141.159L436.352 201.768L346.114 232.031L345.99 232.071L300.812 292.678L210.572 322.941L210.451 322.982L165.27 383.591L75.0301 413.854L74.9113 413.896L29.728 474.501L0 484.474V485.082L30.2137 474.949L30.3352 474.909ZM41.6297 300.662L86.8078 240.053L177.05 209.788L177.169 209.749L222.352 149.141L312.592 118.879L312.714 118.839L357.895 58.23L448.132 27.9671L448.253 27.9265L469.071 0H468.16L447.649 27.5206L357.409 57.7818L357.287 57.8223L312.107 118.431L221.867 148.694L221.745 148.735L176.565 209.342L86.3246 239.606L86.2032 239.647L41.0251 300.254L0 314.014V314.624L41.5083 300.702L41.6297 300.662ZM52.9242 308.236L98.1049 247.629L188.345 217.366L188.466 217.325L233.647 156.716L323.887 126.455L324.008 126.415L369.189 65.8059L459.429 35.5429L459.55 35.5024L486.013 0H485.104L458.943 35.0947L368.703 65.3576L368.582 65.3982L323.401 126.007L233.161 156.27L233.042 156.311L187.859 216.918L97.6191 247.182L97.4977 247.223L52.3196 307.832L0 325.376V325.987L52.8054 308.276L52.9242 308.236ZM64.2214 315.814L109.399 255.203L199.639 224.942L199.761 224.901L244.939 164.294L335.181 134.031L335.303 133.991L380.486 73.3818L470.723 43.1188L470.842 43.0765L502.954 0H502.046L470.238 42.6706L380 72.9335L379.879 72.9759L334.696 133.585L244.456 163.846L244.334 163.886L199.156 224.495L108.914 254.758L108.795 254.799L63.6141 315.406L0 336.739V337.35L64.0999 315.854L64.2214 315.814ZM23.2411 0H21.4221L7.26038 4.75059L7.13893 4.79118L0 14.3682V15.5894L7.74617 5.19706L23.2411 0V0ZM97.9835 338.582L98.1049 338.541L143.286 277.932L233.526 247.671L233.647 247.629L278.828 187.022L369.068 156.757L369.189 156.716L414.367 96.1094L504.607 65.8465L504.728 65.8059L549.909 5.19706L565.407 0H563.585L549.423 4.75059L549.305 4.79118L504.121 65.3982L413.884 95.6629L413.762 95.7035L368.582 156.311L278.342 186.574L278.22 186.616L233.042 247.221L142.8 277.486L142.681 277.526L97.4977 338.135L7.26038 368.396L7.13893 368.437L0 378.016V379.237L7.74617 368.845L97.9835 338.582ZM109.278 346.158L109.399 346.117L154.58 285.51L244.82 255.244L244.939 255.203L290.122 194.598L380.362 164.333L380.484 164.294L425.664 103.685L515.904 73.4223L516.026 73.3818L561.204 12.7747L599.29 0H597.471L560.718 12.3265L560.596 12.3671L515.418 72.9759L425.178 103.239L425.057 103.279L379.879 163.886L289.639 194.149L289.518 194.19L244.334 254.797L154.094 285.062L153.976 285.102L108.795 345.709L18.5549 375.972L18.4334 376.015L0 400.744V401.963L19.038 376.421L109.278 346.158ZM30.3352 293.086L75.5159 232.477L165.756 202.216L165.875 202.172L211.055 141.566L301.298 111.302L301.417 111.261L346.597 50.6524L436.837 20.3912L436.959 20.3506L452.129 0H451.218L436.352 19.9429L346.114 50.2059L345.99 50.2482L300.812 110.855L210.572 141.118L210.451 141.159L165.27 201.768L75.0301 232.031L74.9113 232.071L29.728 292.678L0 302.647V303.259L30.2137 293.126L30.3352 293.086ZM52.9242 217.325L143.164 187.062L143.286 187.022L188.466 126.415L278.706 96.1518L278.828 96.1094L324.008 35.5024L414.246 5.23765L414.367 5.19706L418.243 0H417.332L413.762 4.79118L323.523 35.0541L323.401 35.0947L278.22 95.7035L187.98 125.966L187.859 126.007L142.681 186.616L52.4411 216.877L52.3196 216.918L7.13893 277.526L0 279.921V280.532L7.74617 277.932L52.9242 217.325ZM684.844 459.353L647.087 510H647.996L685.451 459.757L760.36 434.635V434.024L684.965 459.311L684.844 459.353ZM628.49 421.429L628.369 421.47L583.188 482.079L499.931 510H501.75L583.674 482.525L583.795 482.485L628.973 421.878L719.213 391.615L719.335 391.572L760.36 336.542V335.321L718.727 391.166L628.49 421.429ZM639.785 429.005L639.663 429.046L594.483 489.655L533.815 510H535.637L594.968 490.101L595.09 490.061L640.271 429.454L730.508 399.191L730.629 399.15L760.36 359.269V358.048L730.025 398.742L639.785 429.005ZM673.549 269.951L628.369 330.559L538.129 360.821L538.01 360.863L492.827 421.47L402.587 451.733L402.465 451.774L359.061 510H359.972L403.073 452.181L493.312 421.918L493.434 421.878L538.615 361.267L628.855 331.006L628.973 330.965L674.157 270.356L760.36 241.445V240.836L673.671 269.908L673.549 269.951ZM696.141 285.102L650.96 345.709L560.718 375.972L560.596 376.015L515.418 436.624L425.178 466.885L425.057 466.927L392.948 510H393.858L425.664 467.333L515.904 437.07L516.026 437.029L561.204 376.421L651.444 346.158L651.565 346.117L696.746 285.51L760.36 264.175V263.566L696.26 285.062L696.141 285.102ZM707.436 292.678L662.255 353.287L572.015 383.55L571.894 383.591L526.713 444.199L436.473 474.461L436.352 474.501L409.889 510H410.8L436.959 474.909L527.199 444.646L527.32 444.605L572.498 383.996L662.738 353.735L662.86 353.693L708.04 293.086L760.36 275.538V274.929L707.557 292.638L707.436 292.678ZM684.844 277.526L639.663 338.135L549.423 368.396L549.305 368.437L504.124 429.046L413.884 459.311L413.762 459.353L376.006 510H376.914L414.367 459.757L504.607 429.494L504.728 429.454L549.909 368.845L640.149 338.582L640.271 338.541L685.451 277.932L760.36 252.812V252.203L684.965 277.486L684.844 277.526ZM651.079 436.581L650.96 436.624L605.78 497.231L567.701 510H569.52L606.263 497.679L606.384 497.636L651.565 437.029L741.805 406.766L741.926 406.726L760.36 381.997V380.778L741.319 406.318L651.079 436.581ZM730.025 489.655L714.857 510H715.768L730.629 490.061L760.36 480.092V479.481L730.146 489.614L730.025 489.655ZM718.727 300.254L673.549 360.863L583.31 391.126L583.188 391.166L538.01 451.774L447.77 482.036L447.649 482.079L426.834 510H427.745L448.253 482.485L538.493 452.222L538.615 452.181L583.795 391.572L674.035 361.308L674.157 361.267L719.335 300.662L760.36 286.904V286.292L718.849 300.214L718.727 300.254ZM741.319 497.231L731.799 510H732.71L741.926 497.636L760.36 491.456V490.844L741.441 497.19L741.319 497.231ZM752.614 504.806L748.743 510H749.651L753.221 505.214L760.36 502.819V502.209L752.735 504.766L752.614 504.806ZM662.376 444.159L662.255 444.199L617.074 504.806L601.587 510H603.406L617.56 505.255L617.681 505.214L662.86 444.605L753.099 414.341L753.221 414.3L760.36 404.725V403.505L752.614 413.896L662.376 444.159ZM718.727 482.079L697.915 510H698.823L719.335 482.485L760.36 468.727V468.116L718.849 482.036L718.727 482.079ZM673.549 451.774L630.146 510H631.054L674.157 452.181L760.36 423.272V422.661L673.671 451.733L673.549 451.774ZM707.436 474.501L680.974 510H681.882L708.04 474.909L760.36 457.364V456.754L707.557 474.461L707.436 474.501ZM696.141 466.927L664.029 510H664.94L696.746 467.333L760.36 445.999V445.387L696.26 466.885L696.141 466.927ZM718.727 118.431L673.549 179.038L583.31 209.301L583.188 209.342L538.01 269.949L447.77 300.214L447.649 300.254L402.465 360.863L312.228 391.126L312.107 391.166L266.926 451.774L176.686 482.036L176.565 482.079L155.752 510H156.661L177.172 482.485L267.412 452.222L267.533 452.181L312.714 391.572L402.951 361.308L403.073 361.267L448.256 300.662L538.493 270.397L538.615 270.356L583.795 209.749L674.035 179.486L674.157 179.446L719.335 118.839L760.36 105.081V104.471L718.849 118.391L718.727 118.431ZM741.319 42.6706L651.079 72.9335L650.96 72.9759L605.78 133.585L515.54 163.846L515.418 163.886L470.238 224.495L380 254.758L379.879 254.799L334.696 315.406L244.456 345.669L244.334 345.709L199.154 406.318L108.914 436.581L108.795 436.624L63.6141 497.231L25.5354 510H27.3571L64.0999 497.679L64.2214 497.636L109.399 437.029L199.639 406.766L199.761 406.726L244.939 346.117L335.181 315.854L335.303 315.814L380.484 255.203L470.723 224.942L470.842 224.901L516.026 164.294L606.263 134.031L606.384 133.991L651.565 73.3818L741.805 43.1188L741.926 43.0765L760.36 18.3494V17.13L741.319 42.6706ZM730.025 307.832L684.844 368.437L594.604 398.702L594.483 398.742L549.305 459.353L459.062 489.614L458.943 489.655L443.776 510H444.686L459.55 490.061L549.79 459.798L549.909 459.757L595.09 399.15L685.33 368.885L685.451 368.845L730.629 308.236L760.36 298.267V297.658L730.146 307.791L730.025 307.832ZM707.436 110.855L662.255 171.462L572.015 201.727L571.894 201.768L526.713 262.373L436.473 292.638L436.352 292.678L391.173 353.287L300.934 383.55L300.812 383.591L255.629 444.199L165.391 474.461L165.27 474.501L138.808 510H139.719L165.875 474.909L256.115 444.646L256.236 444.605L301.417 383.996L391.659 353.735L391.778 353.693L436.959 293.086L527.199 262.821L527.32 262.781L572.498 202.172L662.738 171.911L662.86 171.87L708.04 111.261L760.36 93.7165V93.1059L707.557 110.815L707.436 110.855ZM662.376 80.5112L662.255 80.5518L617.074 141.159L526.834 171.422L526.713 171.462L481.532 232.071L391.292 262.332L391.173 262.373L345.99 322.982L255.75 353.246L255.629 353.287L210.451 413.896L120.211 444.159L120.089 444.199L74.9113 504.806L59.4242 510H61.2433L75.3944 505.255L75.5159 505.214L120.694 444.605L210.937 414.341L211.055 414.3L256.236 353.693L346.476 323.43L346.597 323.389L391.778 262.781L482.018 232.518L482.139 232.477L527.32 171.87L617.56 141.607L617.681 141.566L662.86 80.9576L753.099 50.6929L753.221 50.6524L760.36 41.0771V39.8576L752.614 50.2482L662.376 80.5112ZM696.141 103.279L650.958 163.886L560.718 194.149L560.596 194.19L515.418 254.799L425.178 285.062L425.057 285.102L379.879 345.709L289.639 375.972L289.518 376.015L244.334 436.624L154.094 466.885L153.976 466.927L121.866 510H122.774L154.58 467.333L244.82 437.07L244.939 437.029L290.122 376.422L380.362 346.158L380.484 346.117L425.664 285.51L515.904 255.244L516.026 255.203L561.204 194.598L651.444 164.333L651.565 164.294L696.746 103.685L760.36 82.3518V81.7412L696.26 103.239L696.141 103.279ZM741.319 133.585L696.138 194.19L605.901 224.453L605.78 224.495L560.596 285.102L470.359 315.365L470.238 315.406L425.057 376.015L334.817 406.278L334.696 406.318L289.518 466.927L199.278 497.19L199.156 497.231L189.636 510H190.547L199.761 497.638L290.001 467.372L290.122 467.333L335.303 406.726L425.543 376.461L425.664 376.421L470.842 315.814L561.082 285.551L561.204 285.51L606.384 224.903L696.624 194.638L696.746 194.598L741.926 133.991L760.36 127.809V127.196L741.441 133.542L741.319 133.585ZM752.614 141.159L707.436 201.768L617.193 232.031L617.074 232.071L571.894 292.678L481.654 322.941L481.532 322.982L436.352 383.591L346.114 413.854L345.99 413.896L300.812 474.501L210.572 504.766L210.451 504.806L206.578 510H207.488L211.055 505.214L301.298 474.949L301.417 474.909L346.597 414.3L436.837 384.037L436.959 383.996L482.139 323.389L572.377 293.126L572.498 293.086L617.681 232.477L707.921 202.216L708.04 202.172L753.221 141.566L760.36 139.172V138.561L752.735 141.118L752.614 141.159ZM730.025 126.007L684.844 186.616L594.604 216.877L594.483 216.918L549.305 277.526L459.062 307.791L458.943 307.832L413.762 368.437L323.523 398.702L323.401 398.742L278.22 459.353L187.98 489.614L187.859 489.655L172.691 510H173.602L188.466 490.061L278.706 459.798L278.828 459.757L324.008 399.15L414.246 368.885L414.367 368.845L459.55 308.238L549.79 277.973L549.909 277.932L595.09 217.325L685.33 187.062L685.451 187.022L730.632 126.415L760.36 116.444V115.834L730.146 125.966L730.025 126.007ZM651.079 254.758L650.96 254.799L605.78 315.406L515.54 345.669L515.418 345.709L470.238 406.318L380 436.581L379.879 436.624L334.696 497.229L296.62 510H298.439L335.181 497.679L335.303 497.636L380.484 437.029L470.723 406.766L470.842 406.726L516.026 346.117L606.263 315.854L606.384 315.814L651.565 255.203L741.805 224.942L741.926 224.901L760.36 200.172V198.953L741.319 224.495L651.079 254.758ZM662.376 262.332L662.255 262.373L617.074 322.982L526.834 353.246L526.713 353.287L481.532 413.896L391.292 444.159L391.173 444.199L345.99 504.806L330.506 510H332.325L346.476 505.255L346.597 505.214L391.778 444.605L482.018 414.341L482.139 414.3L527.32 353.693L617.56 323.43L617.681 323.389L662.86 262.781L753.099 232.518L753.221 232.477L760.36 222.9V221.681L752.614 232.071L662.376 262.332ZM752.614 322.982L707.436 383.591L617.193 413.854L617.074 413.896L571.894 474.501L481.654 504.766L481.532 504.806L477.662 510H478.573L482.139 505.214L572.377 474.949L572.498 474.909L617.681 414.3L707.921 384.037L708.04 383.996L753.221 323.389L760.36 320.995V320.384L752.735 322.941L752.614 322.982ZM741.319 315.406L696.141 376.015L605.901 406.278L605.78 406.318L560.596 466.927L470.359 497.19L470.238 497.231L460.717 510H461.628L470.842 497.636L561.082 467.372L561.204 467.333L606.384 406.726L696.624 376.461L696.746 376.421L741.926 315.814L760.36 309.632V309.021L741.441 315.365L741.319 315.406ZM684.844 95.7035L639.663 156.311L549.423 186.574L549.305 186.616L504.124 247.223L413.884 277.486L413.762 277.526L368.582 338.135L278.342 368.396L278.22 368.437L233.042 429.046L142.8 459.311L142.681 459.353L104.922 510H105.833L143.286 459.757L233.526 429.494L233.647 429.454L278.828 368.845L369.068 338.582L369.189 338.541L414.367 277.932L504.607 247.671L504.728 247.629L549.912 187.022L640.149 156.757L640.271 156.716L685.451 96.1094L760.36 70.9871V70.3765L684.965 95.6629L684.844 95.7035ZM673.549 88.1276L628.369 148.735L538.129 178.998L538.01 179.038L492.827 239.645L402.587 269.908L402.465 269.951L357.287 330.559L267.047 360.821L266.926 360.863L221.745 421.47L131.505 451.733L131.384 451.774L87.98 510H88.8908L131.991 452.181L222.231 421.918L222.352 421.878L267.533 361.267L357.773 331.006L357.895 330.965L403.073 270.356L493.312 240.095L493.434 240.053L538.615 179.446L628.855 149.183L628.973 149.141L674.157 88.5335L760.36 59.6241V59.0135L673.671 88.0871L673.549 88.1276ZM628.49 239.606L628.369 239.647L583.188 300.254L492.948 330.517L492.827 330.559L447.649 391.166L357.409 421.429L357.287 421.47L312.107 482.079L228.85 510H230.669L312.592 482.525L312.714 482.485L357.895 421.878L448.132 391.615L448.253 391.572L493.434 330.965L583.674 300.702L583.795 300.662L628.973 240.053L719.213 209.788L719.335 209.749L760.36 154.717V153.498L718.727 209.342L628.49 239.606ZM639.785 247.182L639.663 247.223L594.483 307.832L504.245 338.095L504.124 338.135L458.943 398.742L368.703 429.005L368.582 429.046L323.401 489.655L262.733 510H264.555L323.887 490.101L324.008 490.061L369.189 429.454L459.429 399.191L459.55 399.15L504.731 338.541L594.968 308.276L595.09 308.236L640.271 247.629L730.508 217.366L730.629 217.325L760.36 177.445V176.225L730.025 216.918L639.785 247.182Z" fill="#2A468D"/>
</svg>