<svg xmlns="http://www.w3.org/2000/svg" width="25" height="25" viewBox="0 0 25 25" fill="none">
  <path fill-rule="evenodd" clip-rule="evenodd" d="M25 12.5C25 19.4036 19.4036 25 12.5 25C5.59644 25 0 19.4036 0 12.5C0 5.59644 5.59644 0 12.5 0C19.4036 0 25 5.59644 25 12.5ZM12.5385 5.76923C13.0907 5.76923 13.5385 6.21695 13.5385 6.76923V12.1632L17.0936 16.1625C17.4605 16.5753 17.4233 17.2073 17.0105 17.5743C16.5978 17.9412 15.9657 17.904 15.5988 17.4913L11.7526 13.1646C11.5167 12.8991 11.4478 12.543 11.5385 12.2251V6.76923C11.5385 6.21695 11.9862 5.76923 12.5385 5.76923Z" fill="#182B5A"/>
</svg>