<svg xmlns="http://www.w3.org/2000/svg" width="895" height="134" viewBox="0 0 895 134" fill="none">
  <path fill-rule="evenodd" clip-rule="evenodd" d="M102.586 582.11L155.705 475.509L261.793 422.285L261.936 422.211L315.051 315.614L421.139 262.386L421.282 262.312L474.394 155.715L580.482 102.485L580.625 102.416L631.655 0H630.587L579.911 101.699L473.823 154.93L473.68 155.001L420.568 261.598L314.48 314.825L314.337 314.897L261.222 421.497L155.134 474.721L154.991 474.795L101.875 581.396L0.532959 632.242V633.316L102.446 582.181L102.586 582.11ZM62.7519 62.4424L168.84 9.2121L168.983 9.14071L173.536 0H172.468L168.272 8.42683L62.1839 61.654L62.0411 61.7254L8.92565 168.326L0.532959 172.534V173.611L9.63953 169.04L62.7519 62.4424ZM22.9145 182.364L76.0331 75.7639L182.118 22.5398L182.261 22.4685L193.456 0H192.385L181.55 21.7515L75.462 74.9786L75.3192 75.05L22.2037 181.65L0.532959 192.526V193.597L22.7748 182.436L22.9145 182.364ZM142.281 302.36L142.423 302.289L195.542 195.689L301.627 142.462L301.77 142.39L354.885 35.7931L426.22 0H424.081L354.317 35.0047L354.174 35.0761L301.056 141.676L194.971 194.904L194.828 194.975L141.713 301.572L35.6246 354.802L35.4818 354.874L0.532959 425.017V427.161L36.1957 355.588L142.281 302.36ZM129.003 289.033L129.145 288.964L182.261 182.364L288.349 129.137L288.489 129.066L341.607 22.4685L386.383 0H384.244L341.039 21.6801L340.896 21.7515L287.778 128.352L181.69 181.579L181.55 181.65L128.435 288.247L22.3465 341.475L22.2037 341.546L0.532959 385.043V387.191L22.9145 342.263L129.003 289.033ZM155.562 315.685L155.705 315.614L208.817 209.017L314.908 155.789L315.051 155.715L368.166 49.1177L466.054 0H463.916L367.595 48.3294L367.453 48.4039L314.337 155.001L208.249 208.228L208.106 208.3L154.991 314.897L48.9058 368.124L48.763 368.195L0.532959 464.991V467.138L49.4738 368.912L155.562 315.685ZM36.1957 195.689L89.3111 89.0885L195.399 35.8645L195.539 35.7931L213.373 0H212.306L194.828 35.0761L88.74 88.3033L88.6004 88.3778L35.4818 194.975L0.532959 212.511V213.582L36.0529 195.76L36.1957 195.689ZM115.725 275.708L115.867 275.637L168.983 169.04L275.071 115.812L275.214 115.741L328.329 9.14071L346.545 0H344.41L327.758 8.35545L327.615 8.42683L274.503 115.024L168.412 168.254L168.272 168.326L115.153 274.923L9.06843 328.15L8.92565 328.224L0.532959 345.069V347.213L9.63953 328.938L115.725 275.708ZM107.527 0H105.389L35.6246 35.0047L35.4818 35.0761L0.532959 105.219V107.367L36.1957 35.7931L107.527 0ZM147.365 0H145.226L48.9058 48.3294L48.763 48.4039L0.532959 145.196V147.341L49.4738 49.1177L147.365 0V0ZM67.6931 0H65.5546L22.3465 21.6801L22.2037 21.7515L0.532959 65.2482V67.3929L22.9145 22.4685L67.6931 0V0ZM102.586 262.312L155.705 155.715L261.793 102.485L261.936 102.416L312.965 0H311.898L261.222 101.699L155.134 154.93L154.991 155.001L101.875 261.598L0.532959 312.445V313.519L102.446 262.386L102.586 262.312ZM62.7519 222.341L115.867 115.741L221.955 62.5138L222.098 62.4424L253.211 0H252.14L221.384 61.7254L115.296 114.953L115.153 115.024L62.0411 221.624L0.532959 252.485V253.559L62.6122 222.413L62.7519 222.341ZM89.3111 248.99L142.423 142.39L248.515 89.1599L248.654 89.0885L293.045 0H291.974L247.944 88.3778L141.855 141.605L141.713 141.676L88.6004 248.273L0.532959 292.459V293.533L89.1684 249.062L89.3111 248.99ZM76.0331 235.666L129.145 129.066L235.233 75.8384L235.376 75.7639L273.128 0H272.057L234.665 75.05L128.574 128.277L128.435 128.352L75.3192 234.952L0.532959 272.474V273.548L75.8903 235.737L76.0331 235.666ZM49.4738 209.017L102.586 102.416L208.677 49.1891L208.817 49.1177L233.29 0H232.223L208.106 48.4039L102.018 101.628L101.875 101.699L48.763 208.3L0.532959 232.497V233.571L49.331 209.088L49.4738 209.017ZM22.9145 502.162L76.0331 395.561L182.118 342.334L182.261 342.263L235.376 235.666L341.464 182.436L341.607 182.364L394.723 75.7639L500.811 22.5398L500.953 22.4685L512.146 0H511.078L500.24 21.7515L394.151 74.9786L394.009 75.05L340.896 181.65L234.808 234.877L234.665 234.952L181.55 341.546L75.462 394.773L75.3192 394.848L22.2037 501.445L0.532959 512.317V513.391L22.7748 502.233L22.9145 502.162ZM49.4738 848.605L102.586 742.008L208.677 688.781L208.817 688.707L261.936 582.11L368.024 528.882L368.166 528.811L421.282 422.211L527.367 368.98L527.51 368.912L580.625 262.312L686.713 209.088L686.856 209.017L739.968 102.416L846.056 49.1891L846.199 49.1177L870.673 0H869.602L845.485 48.4039L739.4 101.628L739.258 101.699L686.142 208.3L580.054 261.527L579.911 261.598L526.799 368.195L420.711 421.425L420.568 421.497L367.453 528.094L261.364 581.321L261.222 581.396L208.106 687.993L102.018 741.22L101.875 741.291L48.763 847.892L0.532959 872.089V873.16L49.331 848.677L49.4738 848.605ZM89.3111 568.785L142.423 462.185L248.515 408.957L248.654 408.886L301.77 302.289L407.858 249.062L408.001 248.99L461.116 142.39L567.204 89.1599L567.347 89.0885L611.738 0H610.667L566.633 88.3778L460.545 141.605L460.405 141.676L407.287 248.273L301.199 301.501L301.056 301.572L247.944 408.172L141.855 461.396L141.713 461.468L88.6004 568.068L0.532959 612.257V613.328L89.1684 568.856L89.3111 568.785ZM155.562 635.476L155.705 635.405L208.817 528.811L314.908 475.581L315.051 475.509L368.166 368.912L474.251 315.685L474.394 315.614L527.51 209.017L633.598 155.789L633.74 155.715L686.856 49.1177L784.747 0H782.605L686.285 48.3294L686.142 48.4039L633.03 155.001L526.942 208.228L526.799 208.3L473.68 314.897L367.595 368.124L367.453 368.195L314.337 474.795L208.249 528.023L208.106 528.094L154.991 634.694L48.9058 687.921L48.763 687.993L0.532959 784.788V786.933L49.4738 688.71L155.562 635.476ZM62.7519 861.93L115.867 755.333L221.955 702.106L222.098 702.034L275.214 595.434L381.302 542.204L381.445 542.133L434.56 435.535L540.648 382.308L540.791 382.237L593.903 275.637L699.991 222.413L700.134 222.341L753.25 115.741L859.334 62.5138L859.477 62.4424L890.593 0H889.522L858.767 61.7254L752.678 114.953L752.536 115.024L699.42 221.624L593.335 274.851L593.192 274.923L540.077 381.52L433.989 434.75L433.846 434.822L380.731 541.422L274.643 594.649L274.503 594.72L221.384 701.317L115.296 754.545L115.153 754.616L62.0411 861.216L0.532959 892.077V893.151L62.6122 862.001L62.7519 861.93ZM142.281 622.158L142.423 622.083L195.539 515.486L301.627 462.256L301.77 462.185L354.885 355.584L460.976 302.36L461.116 302.289L514.232 195.689L620.32 142.462L620.462 142.39L673.575 35.7931L744.91 0H742.771L673.007 35.0047L672.864 35.0761L619.749 141.676L513.66 194.904L513.518 194.975L460.405 301.572L354.317 354.802L354.174 354.874L301.056 461.468L194.971 514.698L194.828 514.769L141.713 621.37L35.6246 674.597L35.4818 674.668L0.532959 744.811V746.959L36.1957 675.385L142.281 622.158ZM62.7519 702.034L168.84 648.804L168.983 648.733L222.098 542.133L328.186 488.905L328.329 488.834L381.445 382.237L487.53 329.01L487.672 328.938L540.791 222.341L646.879 169.114L647.019 169.04L700.134 62.4424L806.222 9.2121L806.365 9.14071L810.918 0H809.851L805.651 8.42683L699.563 61.654L699.42 61.7254L646.308 168.326L540.217 221.553L540.077 221.624L486.958 328.224L380.873 381.448L380.731 381.52L327.615 488.117L221.527 541.35L221.384 541.422L168.272 648.016L62.1839 701.246L62.0411 701.317L8.92565 807.921L0.532959 812.126V813.2L9.63953 808.632L62.7519 702.034ZM22.9145 821.956L76.0331 715.359L182.118 662.129L182.261 662.057L235.376 555.46L341.464 502.233L341.607 502.162L394.723 395.561L500.811 342.334L500.953 342.263L554.066 235.666L660.154 182.436L660.297 182.364L713.412 75.7639L819.5 22.5398L819.643 22.4685L830.838 0H829.768L818.932 21.7515L712.844 74.9786L712.701 75.05L659.583 181.65L553.498 234.877L553.355 234.952L500.24 341.546L394.151 394.773L394.009 394.848L340.896 501.445L234.808 554.672L234.665 554.743L181.55 661.344L75.462 714.571L75.3192 714.642L22.2037 821.242L0.532959 832.118V833.189L22.7748 822.024L22.9145 821.956ZM36.1957 835.281L89.3142 728.681L195.399 675.453L195.539 675.382L248.654 568.785L354.746 515.558L354.885 515.486L408.001 408.886L514.089 355.662L514.232 355.584L567.347 248.99L673.432 195.76L673.575 195.689L726.693 89.0885L832.781 35.8645L832.921 35.7931L850.756 0H849.685L832.21 35.0761L726.119 88.3033L725.979 88.3778L672.864 194.975L566.776 248.202L566.633 248.273L513.518 354.874L407.433 408.101L407.287 408.172L354.174 514.769L248.086 567.997L247.944 568.068L194.828 674.668L88.74 727.895L88.6004 727.97L35.4818 834.564L0.532959 852.103V853.174L36.0529 835.352L36.1957 835.281ZM49.4738 528.811L102.586 422.211L208.677 368.98L208.817 368.912L261.936 262.312L368.024 209.088L368.166 209.017L421.282 102.416L527.367 49.1891L527.51 49.1177L551.983 0H550.912L526.799 48.4039L420.711 101.628L420.568 101.699L367.453 208.3L261.364 261.527L261.222 261.598L208.106 368.195L102.018 421.425L101.875 421.497L48.763 528.094L0.532959 552.294V553.368L49.331 528.882L49.4738 528.811ZM62.7519 542.133L115.867 435.535L221.955 382.308L222.098 382.237L275.214 275.637L381.302 222.413L381.445 222.341L434.56 115.741L540.648 62.5138L540.791 62.4424L571.9 0H570.833L540.077 61.7254L433.989 114.953L433.846 115.024L380.731 221.624L274.643 274.851L274.503 274.923L221.384 381.52L115.296 434.75L115.153 434.822L62.0411 541.422L0.532959 572.28V573.354L62.6122 542.204L62.7519 542.133ZM76.0331 555.46L129.145 448.857L235.233 395.633L235.376 395.561L288.489 288.964L394.58 235.737L394.723 235.666L447.841 129.066L553.926 75.8384L554.066 75.7639L591.817 0H590.75L553.355 75.05L447.27 128.277L447.127 128.352L394.009 234.952L287.921 288.176L287.778 288.247L234.665 394.848L128.574 448.075L128.435 448.146L75.3192 554.743L0.532959 592.265V593.339L75.8903 555.532L76.0331 555.46ZM27.8558 0H25.7172L9.06843 8.35545L8.92565 8.42683L0.532959 25.2712V27.419L9.63953 9.14071L27.8558 0V0ZM115.725 595.506L115.867 595.434L168.983 488.834L275.071 435.61L275.214 435.535L328.329 328.938L434.417 275.708L434.56 275.637L487.672 169.04L593.76 115.812L593.903 115.741L647.019 9.14071L665.238 0H663.096L646.448 8.35545L646.308 8.42683L593.189 115.024L487.104 168.254L486.962 168.326L433.846 274.923L327.758 328.15L327.615 328.224L274.503 434.818L168.412 488.049L168.272 488.12L115.153 594.72L9.06843 647.944L8.92565 648.016L0.532959 664.863V667.011L9.63953 648.733L115.725 595.506ZM129.003 608.83L129.145 608.759L182.261 502.162L288.349 448.928L288.489 448.857L341.607 342.263L447.695 289.033L447.838 288.964L500.953 182.364L607.042 129.137L607.184 129.066L660.297 22.4685L705.072 0H702.934L659.726 21.6801L659.583 21.7515L606.47 128.352L500.382 181.579L500.24 181.65L447.127 288.247L341.039 341.475L340.896 341.546L287.778 448.143L181.69 501.373L181.55 501.445L128.435 608.042L22.3465 661.269L22.2037 661.344L0.532959 704.837V706.982L22.9145 662.057L129.003 608.83ZM36.1957 515.486L89.3111 408.886L195.399 355.662L195.539 355.584L248.654 248.99L354.746 195.76L354.885 195.689L408.001 89.0885L514.089 35.8645L514.232 35.7931L532.066 0H530.995L513.518 35.0761L407.433 88.3033L407.287 88.3778L354.174 194.975L248.086 248.202L247.944 248.273L194.828 354.874L88.74 408.101L88.6004 408.172L35.4818 514.769L0.532959 532.303V533.38L36.0529 515.558L36.1957 515.486ZM62.7519 382.237L168.84 329.01L168.983 328.938L222.098 222.341L328.186 169.114L328.329 169.04L381.445 62.4424L487.53 9.2121L487.672 9.14071L492.229 0H491.158L486.962 8.42683L380.873 61.654L380.731 61.7254L327.615 168.326L221.527 221.553L221.384 221.624L168.272 328.224L62.1839 381.448L62.0411 381.52L8.92565 488.12L0.532959 492.332V493.406L9.63953 488.834L62.7519 382.237ZM805.651 807.921L761.263 897H762.331L806.365 808.632L894.429 764.446V763.372L805.794 807.846L805.651 807.921ZM739.4 741.22L739.258 741.291L686.142 847.892L588.264 897H590.402L686.713 848.677L686.856 848.605L739.968 742.008L846.056 688.781L846.199 688.707L894.429 591.918V589.77L845.485 687.993L739.4 741.22ZM752.678 754.545L752.536 754.616L699.42 861.216L628.098 897H630.239L699.991 862.001L700.134 861.93L753.25 755.333L859.334 702.106L859.477 702.034L894.429 631.891V629.744L858.767 701.317L752.678 754.545ZM792.373 474.795L739.258 581.396L633.169 634.62L633.03 634.694L579.911 741.291L473.823 794.518L473.68 794.59L422.654 897H423.725L474.394 795.307L580.482 742.08L580.625 742.008L633.74 635.405L739.829 582.181L739.968 582.11L793.087 475.509L894.429 424.66V423.589L792.516 474.721L792.373 474.795ZM818.932 501.445L765.817 608.042L659.726 661.269L659.583 661.344L606.47 767.944L500.382 821.168L500.24 821.242L462.491 897H463.562L500.953 821.956L607.042 768.729L607.184 768.658L660.297 662.057L766.385 608.83L766.528 608.759L819.643 502.162L894.429 464.637V463.566L819.072 501.373L818.932 501.445ZM832.21 514.769L779.095 621.37L673.007 674.597L672.864 674.668L619.749 781.268L513.66 834.492L513.518 834.564L482.408 897H483.479L514.232 835.281L620.32 782.054L620.462 781.982L673.575 675.382L779.663 622.158L779.806 622.083L832.921 515.486L894.429 484.622V483.551L832.353 514.698L832.21 514.769ZM805.651 488.12L752.536 594.72L646.448 647.944L646.308 648.016L593.192 754.616L487.104 807.846L486.962 807.921L442.574 897H443.642L487.672 808.632L593.76 755.404L593.903 755.333L647.019 648.733L753.107 595.506L753.25 595.434L806.365 488.834L894.429 444.651V443.58L805.794 488.049L805.651 488.12ZM765.956 767.869L765.817 767.944L712.701 874.541L667.935 897H670.074L713.269 875.329L713.412 875.255L766.528 768.658L872.616 715.43L872.758 715.359L894.429 671.865V669.721L872.045 714.642L765.956 767.869ZM858.767 861.216L840.935 897H842.006L859.477 861.93L894.429 844.397V843.323L858.909 861.145L858.767 861.216ZM845.485 528.094L792.373 634.694L686.285 687.921L686.142 687.993L633.03 794.59L526.942 847.817L526.799 847.892L502.328 897H503.399L527.51 848.605L633.598 795.378L633.74 795.307L686.856 688.707L792.944 635.476L793.087 635.405L846.199 528.811L894.429 504.614V503.537L845.628 528.023L845.485 528.094ZM872.045 874.541L860.852 897H861.923L872.758 875.255L894.429 864.385V863.308L872.187 874.469L872.045 874.541ZM885.323 887.866L880.773 897H881.84L886.036 888.582L894.429 884.371V883.297L885.465 887.794L885.323 887.866ZM779.238 781.197L779.095 781.268L725.979 887.866L707.773 897H709.911L726.551 888.654L726.693 888.582L779.806 781.982L885.894 728.752L886.036 728.681L894.429 711.839V709.695L885.323 727.97L779.238 781.197ZM845.485 847.892L821.018 897H822.086L846.199 848.605L894.429 824.408V823.334L845.628 847.817L845.485 847.892ZM792.373 794.59L741.346 897H742.414L793.087 795.307L894.429 744.46V743.386L792.516 794.518L792.373 794.59ZM832.21 834.564L801.101 897H802.169L832.921 835.281L894.429 804.423V803.349L832.353 834.492L832.21 834.564ZM818.932 821.242L781.181 897H782.251L819.643 821.956L894.429 784.434V783.357L819.072 821.168L818.932 821.242ZM845.485 208.3L792.373 314.897L686.285 368.124L686.142 368.195L633.03 474.792L526.942 528.023L526.799 528.094L473.68 634.694L367.595 687.921L367.453 687.993L314.337 794.59L208.249 847.817L208.106 847.892L183.639 897H184.707L208.82 848.605L314.908 795.378L315.051 795.307L368.166 688.707L474.251 635.476L474.394 635.405L527.513 528.811L633.598 475.581L633.74 475.509L686.856 368.912L792.944 315.685L793.087 315.614L846.199 209.017L894.429 184.819V183.745L845.628 208.228L845.485 208.3ZM872.045 75.05L765.956 128.277L765.817 128.352L712.701 234.952L606.613 288.176L606.47 288.247L553.355 394.848L447.27 448.075L447.127 448.146L394.009 554.743L287.921 607.97L287.778 608.042L234.662 714.642L128.574 767.869L128.435 767.944L75.3192 874.541L30.553 897H32.6946L75.8903 875.329L76.0331 875.255L129.145 768.658L235.233 715.43L235.376 715.359L288.489 608.759L394.58 555.532L394.723 555.46L447.838 448.857L553.926 395.633L554.066 395.561L607.184 288.964L713.269 235.737L713.412 235.666L766.528 129.066L872.616 75.8384L872.758 75.7639L894.429 32.2734V30.1286L872.045 75.05ZM858.767 541.422L805.651 648.016L699.563 701.246L699.42 701.317L646.308 807.921L540.217 861.145L540.077 861.216L522.246 897H523.316L540.791 861.93L646.879 808.703L647.019 808.632L700.134 702.034L806.222 648.804L806.365 648.733L859.477 542.133L894.429 524.599V523.528L858.909 541.35L858.767 541.422ZM832.21 194.975L779.095 301.572L673.007 354.802L672.864 354.874L619.749 461.468L513.66 514.698L513.518 514.769L460.405 621.37L354.317 674.597L354.174 674.668L301.056 781.268L194.971 834.492L194.828 834.564L163.719 897H164.79L195.539 835.281L301.627 782.054L301.77 781.982L354.885 675.382L460.976 622.158L461.116 622.083L514.232 515.486L620.32 462.256L620.462 462.185L673.575 355.584L779.663 302.36L779.806 302.289L832.921 195.689L894.429 164.831V163.757L832.353 194.904L832.21 194.975ZM779.238 141.605L779.095 141.676L725.979 248.273L619.891 301.501L619.749 301.572L566.633 408.172L460.545 461.396L460.405 461.468L407.287 568.068L301.199 621.298L301.056 621.37L247.944 727.97L141.855 781.197L141.713 781.268L88.6004 887.866L70.3934 897H72.532L89.1684 888.654L89.3111 888.582L142.423 781.982L248.515 728.752L248.654 728.681L301.77 622.083L407.858 568.856L408.001 568.785L461.116 462.185L567.204 408.957L567.347 408.886L620.462 302.289L726.551 249.062L726.693 248.99L779.806 142.39L885.894 89.1599L886.036 89.0885L894.429 72.2473V70.1026L885.323 88.3778L779.238 141.605ZM818.932 181.65L765.814 288.247L659.726 341.475L659.583 341.546L606.47 448.146L500.382 501.373L500.24 501.445L447.127 608.042L341.039 661.269L340.896 661.344L287.778 767.944L181.69 821.168L181.55 821.242L143.802 897H144.869L182.261 821.956L288.349 768.729L288.489 768.658L341.607 662.06L447.695 608.83L447.838 608.759L500.953 502.162L607.042 448.928L607.184 448.857L660.297 342.263L766.385 289.033L766.528 288.964L819.643 182.364L894.429 144.842V143.768L819.072 181.579L818.932 181.65ZM872.045 234.952L818.929 341.546L712.844 394.773L712.701 394.848L659.583 501.445L553.498 554.672L553.355 554.743L500.24 661.344L394.151 714.571L394.009 714.642L340.896 821.242L234.808 874.469L234.665 874.541L223.473 897H224.544L235.376 875.258L341.464 822.024L341.607 821.956L394.723 715.359L500.811 662.129L500.953 662.057L554.066 555.46L660.154 502.233L660.297 502.162L713.412 395.565L819.5 342.334L819.643 342.263L872.758 235.666L894.429 224.793V223.716L872.187 234.877L872.045 234.952ZM885.323 248.273L832.21 354.874L726.119 408.101L725.979 408.172L672.864 514.769L566.776 567.997L566.633 568.068L513.518 674.668L407.433 727.895L407.287 727.97L354.174 834.564L248.086 887.794L247.944 887.866L243.39 897H244.461L248.654 888.582L354.746 835.352L354.885 835.281L408.001 728.681L514.089 675.453L514.232 675.382L567.347 568.785L673.432 515.558L673.575 515.486L726.693 408.886L832.781 355.662L832.921 355.584L886.036 248.99L894.429 244.779V243.705L885.465 248.202L885.323 248.273ZM858.767 221.624L805.651 328.224L699.563 381.448L699.42 381.52L646.308 488.12L540.217 541.35L540.077 541.422L486.962 648.016L380.873 701.246L380.731 701.317L327.615 807.921L221.527 861.145L221.384 861.216L203.553 897H204.624L222.098 861.93L328.186 808.703L328.329 808.632L381.445 702.034L487.53 648.804L487.672 648.733L540.791 542.136L646.879 488.905L647.019 488.834L700.134 382.237L806.222 329.01L806.365 328.938L859.48 222.341L894.429 204.805V203.731L858.909 221.553L858.767 221.624ZM765.956 448.075L765.817 448.146L712.701 554.743L606.613 607.97L606.47 608.042L553.355 714.642L447.27 767.869L447.127 767.944L394.009 874.538L349.246 897H351.384L394.58 875.329L394.723 875.255L447.838 768.658L553.926 715.43L554.066 715.359L607.184 608.759L713.269 555.532L713.412 555.46L766.528 448.857L872.616 395.633L872.758 395.561L894.429 352.068V349.923L872.045 394.848L765.956 448.075ZM779.238 461.396L779.095 461.468L725.979 568.068L619.891 621.298L619.749 621.37L566.633 727.97L460.545 781.197L460.405 781.268L407.287 887.866L389.083 897H391.221L407.858 888.654L408.001 888.582L461.116 781.982L567.204 728.752L567.347 728.681L620.462 622.083L726.551 568.856L726.693 568.785L779.806 462.185L885.894 408.957L886.036 408.886L894.429 392.042V389.897L885.323 408.172L779.238 461.396ZM885.323 568.068L832.21 674.668L726.119 727.895L725.979 727.97L672.864 834.564L566.776 887.794L566.633 887.866L562.083 897H563.154L567.347 888.582L673.432 835.352L673.575 835.281L726.693 728.681L832.781 675.453L832.921 675.382L886.036 568.785L894.429 564.573V563.499L885.465 567.997L885.323 568.068ZM872.045 554.743L818.932 661.344L712.844 714.571L712.701 714.642L659.583 821.242L553.498 874.469L553.355 874.541L542.163 897H543.234L554.066 875.255L660.154 822.024L660.297 821.956L713.412 715.359L819.5 662.129L819.643 662.057L872.758 555.46L894.429 544.588V543.514L872.187 554.672L872.045 554.743ZM805.651 168.326L752.536 274.923L646.448 328.15L646.308 328.224L593.192 434.822L487.104 488.049L486.962 488.12L433.846 594.72L327.758 647.944L327.615 648.016L274.503 754.616L168.412 807.846L168.272 807.921L123.881 897H124.952L168.983 808.632L275.071 755.404L275.214 755.333L328.329 648.733L434.417 595.506L434.56 595.434L487.672 488.834L593.76 435.61L593.903 435.535L647.022 328.938L753.107 275.708L753.25 275.637L806.365 169.04L894.429 124.854V123.78L805.794 168.254L805.651 168.326ZM792.373 155.001L739.258 261.598L633.169 314.825L633.03 314.897L579.911 421.494L473.823 474.721L473.68 474.795L420.568 581.396L314.48 634.62L314.337 634.694L261.222 741.291L155.134 794.518L154.991 794.59L103.964 897H105.035L155.705 795.307L261.793 742.08L261.936 742.008L315.051 635.405L421.139 582.181L421.282 582.11L474.394 475.509L580.482 422.285L580.625 422.211L633.74 315.614L739.829 262.386L739.968 262.312L793.087 155.715L894.429 104.868V103.794L792.516 154.93L792.373 155.001ZM739.4 421.425L739.258 421.497L686.142 528.094L580.054 581.321L579.911 581.396L526.799 687.993L420.711 741.22L420.568 741.291L367.453 847.892L269.574 897H271.713L368.024 848.677L368.166 848.605L421.282 742.008L527.367 688.781L527.51 688.707L580.625 582.11L686.713 528.882L686.856 528.811L739.968 422.211L846.056 368.98L846.199 368.912L894.429 272.12V269.975L845.485 368.195L739.4 421.425ZM752.678 434.75L752.536 434.822L699.42 541.422L593.335 594.649L593.192 594.72L540.077 701.317L433.989 754.545L433.846 754.616L380.731 861.216L309.408 897H311.55L381.302 862.001L381.445 861.93L434.56 755.333L540.648 702.106L540.791 702.034L593.906 595.434L699.991 542.204L700.134 542.133L753.25 435.535L859.334 382.308L859.477 382.237L894.429 312.094V309.949L858.767 381.52L752.678 434.75Z" fill="#2A468D"/>
</svg>