<svg xmlns="http://www.w3.org/2000/svg" width="894" height="897" viewBox="0 0 894 897" fill="none">
  <path fill-rule="evenodd" clip-rule="evenodd" d="M102.053 582.11L155.172 475.509L261.26 422.285L261.403 422.211L314.518 315.614L420.606 262.386L420.749 262.312L473.861 155.715L579.949 102.485L580.092 102.416L631.122 0H630.054L579.378 101.699L473.29 154.93L473.147 155.001L420.035 261.598L313.947 314.825L313.804 314.897L260.689 421.497L154.601 474.721L154.458 474.795L101.342 581.396L0 632.242V633.316L101.913 582.181L102.053 582.11ZM62.2189 62.4424L168.307 9.2121L168.45 9.14071L173.003 0H171.935L167.739 8.42683L61.6509 61.654L61.5081 61.7254L8.39269 168.326L0 172.534V173.611L9.10657 169.04L62.2189 62.4424ZM22.3815 182.364L75.5001 75.7639L181.585 22.5398L181.728 22.4685L192.923 0H191.852L181.017 21.7515L74.929 74.9786L74.7862 75.05L21.6708 181.65L0 192.526V193.597L22.2419 182.436L22.3815 182.364ZM141.748 302.36L141.891 302.289L195.009 195.689L301.094 142.462L301.237 142.39L354.352 35.7931L425.687 0H423.549L353.784 35.0047L353.642 35.0761L300.523 141.676L194.438 194.904L194.295 194.975L141.18 301.572L35.0916 354.802L34.9489 354.874L0 425.017V427.161L35.6627 355.588L141.748 302.36ZM128.47 289.033L128.612 288.964L181.728 182.364L287.816 129.137L287.956 129.066L341.074 22.4685L385.85 0H383.711L340.506 21.6801L340.363 21.7515L287.245 128.352L181.157 181.579L181.017 181.65L127.902 288.247L21.8136 341.475L21.6708 341.546L0 385.043V387.191L22.3815 342.263L128.47 289.033ZM155.029 315.685L155.172 315.614L208.284 209.017L314.375 155.789L314.518 155.715L367.633 49.1177L465.521 0H463.383L367.062 48.3294L366.92 48.4039L313.804 155.001L207.716 208.228L207.573 208.3L154.458 314.897L48.3728 368.124L48.23 368.195L0 464.991V467.138L48.9408 368.912L155.029 315.685ZM35.6627 195.689L88.7782 89.0885L194.866 35.8645L195.006 35.7931L212.84 0H211.773L194.295 35.0761L88.2071 88.3033L88.0674 88.3778L34.9489 194.975L0 212.511V213.582L35.52 195.76L35.6627 195.689ZM115.192 275.708L115.334 275.637L168.45 169.04L274.538 115.812L274.681 115.741L327.796 9.14071L346.012 0H343.877L327.225 8.35545L327.082 8.42683L273.97 115.024L167.879 168.254L167.739 168.326L114.62 274.923L8.53547 328.15L8.39269 328.224L0 345.069V347.213L9.10657 328.938L115.192 275.708ZM106.994 0H104.856L35.0916 35.0047L34.9489 35.0761L0 105.219V107.367L35.6627 35.7931L106.994 0ZM146.832 0H144.693L48.3728 48.3294L48.23 48.4039L0 145.196V147.341L48.9408 49.1177L146.832 0V0ZM67.1602 0H65.0216L21.8136 21.6801L21.6708 21.7515L0 65.2482V67.3929L22.3815 22.4685L67.1602 0V0ZM102.053 262.312L155.172 155.715L261.26 102.485L261.403 102.416L312.432 0H311.365L260.689 101.699L154.601 154.93L154.458 155.001L101.342 261.598L0 312.445V313.519L101.913 262.386L102.053 262.312ZM62.2189 222.341L115.334 115.741L221.422 62.5138L221.565 62.4424L252.678 0H251.607L220.851 61.7254L114.763 114.953L114.62 115.024L61.5081 221.624L0 252.485V253.559L62.0792 222.413L62.2189 222.341ZM88.7782 248.99L141.891 142.39L247.982 89.1599L248.121 89.0885L292.512 0H291.441L247.411 88.3778L141.323 141.605L141.18 141.676L88.0674 248.273L0 292.459V293.533L88.6354 249.062L88.7782 248.99ZM75.5001 235.666L128.612 129.066L234.701 75.8384L234.843 75.7639L272.595 0H271.524L234.133 75.05L128.041 128.277L127.902 128.352L74.7862 234.952L0 272.474V273.548L75.3573 235.737L75.5001 235.666ZM48.9408 209.017L102.053 102.416L208.144 49.1891L208.284 49.1177L232.758 0H231.69L207.573 48.4039L101.485 101.628L101.342 101.699L48.23 208.3L0 232.497V233.571L48.798 209.088L48.9408 209.017ZM22.3815 502.162L75.5001 395.561L181.585 342.334L181.728 342.263L234.843 235.666L340.931 182.436L341.074 182.364L394.19 75.7639L500.278 22.5398L500.421 22.4685L511.613 0H510.545L499.707 21.7515L393.619 74.9786L393.476 75.05L340.363 181.65L234.275 234.877L234.133 234.952L181.017 341.546L74.929 394.773L74.7862 394.848L21.6708 501.445L0 512.317V513.391L22.2419 502.233L22.3815 502.162ZM48.9408 848.605L102.053 742.008L208.144 688.781L208.284 688.707L261.403 582.11L367.491 528.882L367.633 528.811L420.749 422.211L526.834 368.98L526.977 368.912L580.092 262.312L686.18 209.088L686.323 209.017L739.435 102.416L845.523 49.1891L845.666 49.1177L870.14 0H869.069L844.952 48.4039L738.867 101.628L738.725 101.699L685.609 208.3L579.521 261.527L579.378 261.598L526.266 368.195L420.178 421.425L420.035 421.497L366.92 528.094L260.831 581.321L260.689 581.396L207.573 687.993L101.485 741.22L101.342 741.291L48.23 847.892L0 872.089V873.16L48.798 848.677L48.9408 848.605ZM88.7782 568.785L141.891 462.185L247.982 408.957L248.121 408.886L301.237 302.289L407.325 249.062L407.468 248.99L460.583 142.39L566.671 89.1599L566.814 89.0885L611.205 0H610.134L566.1 88.3778L460.012 141.605L459.872 141.676L406.754 248.273L300.666 301.501L300.523 301.572L247.411 408.172L141.323 461.396L141.18 461.468L88.0674 568.068L0 612.257V613.328L88.6354 568.856L88.7782 568.785ZM155.029 635.476L155.172 635.405L208.284 528.811L314.375 475.581L314.518 475.509L367.633 368.912L473.718 315.685L473.861 315.614L526.977 209.017L633.065 155.789L633.208 155.715L686.323 49.1177L784.214 0H782.072L685.752 48.3294L685.609 48.4039L632.497 155.001L526.409 208.228L526.266 208.3L473.147 314.897L367.062 368.124L366.92 368.195L313.804 474.795L207.716 528.023L207.573 528.094L154.458 634.694L48.3728 687.921L48.23 687.993L0 784.788V786.933L48.9408 688.71L155.029 635.476ZM62.2189 861.93L115.334 755.333L221.422 702.106L221.565 702.034L274.681 595.434L380.769 542.204L380.912 542.133L434.027 435.535L540.115 382.308L540.258 382.237L593.37 275.637L699.458 222.413L699.601 222.341L752.717 115.741L858.802 62.5138L858.944 62.4424L890.06 0H888.989L858.234 61.7254L752.145 114.953L752.003 115.024L698.887 221.624L592.802 274.851L592.659 274.923L539.544 381.52L433.456 434.75L433.313 434.822L380.198 541.422L274.11 594.649L273.97 594.72L220.851 701.317L114.763 754.545L114.62 754.616L61.5081 861.216L0 892.077V893.151L62.0792 862.001L62.2189 861.93ZM141.748 622.158L141.891 622.083L195.006 515.486L301.094 462.256L301.237 462.185L354.352 355.584L460.444 302.36L460.583 302.289L513.699 195.689L619.787 142.462L619.929 142.39L673.042 35.7931L744.377 0H742.238L672.474 35.0047L672.331 35.0761L619.216 141.676L513.128 194.904L512.985 194.975L459.872 301.572L353.784 354.802L353.642 354.874L300.523 461.468L194.438 514.698L194.295 514.769L141.18 621.37L35.0916 674.597L34.9489 674.668L0 744.811V746.959L35.6627 675.385L141.748 622.158ZM62.2189 702.034L168.307 648.804L168.45 648.733L221.565 542.133L327.653 488.905L327.796 488.834L380.912 382.237L486.997 329.01L487.139 328.938L540.258 222.341L646.346 169.114L646.486 169.04L699.601 62.4424L805.689 9.2121L805.832 9.14071L810.385 0H809.318L805.118 8.42683L699.03 61.654L698.887 61.7254L645.775 168.326L539.684 221.553L539.544 221.624L486.425 328.224L380.34 381.448L380.198 381.52L327.082 488.117L220.994 541.35L220.851 541.422L167.739 648.016L61.6509 701.246L61.5081 701.317L8.39269 807.921L0 812.126V813.2L9.10657 808.632L62.2189 702.034ZM22.3815 821.956L75.5001 715.359L181.585 662.129L181.728 662.057L234.843 555.46L340.931 502.233L341.074 502.162L394.19 395.561L500.278 342.334L500.421 342.263L553.533 235.666L659.621 182.436L659.764 182.364L712.879 75.7639L818.967 22.5398L819.11 22.4685L830.305 0H829.235L818.399 21.7515L712.311 74.9786L712.168 75.05L659.05 181.65L552.965 234.877L552.822 234.952L499.707 341.546L393.619 394.773L393.476 394.848L340.363 501.445L234.275 554.672L234.133 554.743L181.017 661.344L74.929 714.571L74.7862 714.642L21.6708 821.242L0 832.118V833.189L22.2419 822.024L22.3815 821.956ZM35.6627 835.281L88.7813 728.681L194.866 675.453L195.006 675.382L248.121 568.785L354.213 515.558L354.352 515.486L407.468 408.886L513.556 355.662L513.699 355.584L566.814 248.99L672.899 195.76L673.042 195.689L726.16 89.0885L832.248 35.8645L832.388 35.7931L850.223 0H849.152L831.677 35.0761L725.586 88.3033L725.446 88.3778L672.331 194.975L566.243 248.202L566.1 248.273L512.985 354.874L406.9 408.101L406.754 408.172L353.642 514.769L247.553 567.997L247.411 568.068L194.295 674.668L88.2071 727.895L88.0674 727.97L34.9489 834.564L0 852.103V853.174L35.52 835.352L35.6627 835.281ZM48.9408 528.811L102.053 422.211L208.144 368.98L208.284 368.912L261.403 262.312L367.491 209.088L367.633 209.017L420.749 102.416L526.834 49.1891L526.977 49.1177L551.45 0H550.379L526.266 48.4039L420.178 101.628L420.035 101.699L366.92 208.3L260.831 261.527L260.689 261.598L207.573 368.195L101.485 421.425L101.342 421.497L48.23 528.094L0 552.294V553.368L48.798 528.882L48.9408 528.811ZM62.2189 542.133L115.334 435.535L221.422 382.308L221.565 382.237L274.681 275.637L380.769 222.413L380.912 222.341L434.027 115.741L540.115 62.5138L540.258 62.4424L571.367 0H570.3L539.544 61.7254L433.456 114.953L433.313 115.024L380.198 221.624L274.11 274.851L273.97 274.923L220.851 381.52L114.763 434.75L114.62 434.822L61.5081 541.422L0 572.28V573.354L62.0792 542.204L62.2189 542.133ZM75.5001 555.46L128.612 448.857L234.701 395.633L234.843 395.561L287.956 288.964L394.047 235.737L394.19 235.666L447.308 129.066L553.393 75.8384L553.533 75.7639L591.284 0H590.217L552.822 75.05L446.737 128.277L446.594 128.352L393.476 234.952L287.388 288.176L287.245 288.247L234.133 394.848L128.041 448.075L127.902 448.146L74.7862 554.743L0 592.265V593.339L75.3573 555.532L75.5001 555.46ZM27.3228 0H25.1843L8.53547 8.35545L8.39269 8.42683L0 25.2712V27.419L9.10657 9.14071L27.3228 0V0ZM115.192 595.506L115.334 595.434L168.45 488.834L274.538 435.61L274.681 435.535L327.796 328.938L433.884 275.708L434.027 275.637L487.139 169.04L593.227 115.812L593.37 115.741L646.486 9.14071L664.705 0H662.563L645.915 8.35545L645.775 8.42683L592.656 115.024L486.571 168.254L486.429 168.326L433.313 274.923L327.225 328.15L327.082 328.224L273.97 434.818L167.879 488.049L167.739 488.12L114.62 594.72L8.53547 647.944L8.39269 648.016L0 664.863V667.011L9.10657 648.733L115.192 595.506ZM128.47 608.83L128.612 608.759L181.728 502.162L287.816 448.928L287.956 448.857L341.074 342.263L447.162 289.033L447.305 288.964L500.421 182.364L606.509 129.137L606.651 129.066L659.764 22.4685L704.539 0H702.401L659.193 21.6801L659.05 21.7515L605.938 128.352L499.849 181.579L499.707 181.65L446.594 288.247L340.506 341.475L340.363 341.546L287.245 448.143L181.157 501.373L181.017 501.445L127.902 608.042L21.8136 661.269L21.6708 661.344L0 704.837V706.982L22.3815 662.057L128.47 608.83ZM35.6627 515.486L88.7782 408.886L194.866 355.662L195.006 355.584L248.121 248.99L354.213 195.76L354.352 195.689L407.468 89.0885L513.556 35.8645L513.699 35.7931L531.533 0H530.462L512.985 35.0761L406.9 88.3033L406.754 88.3778L353.642 194.975L247.553 248.202L247.411 248.273L194.295 354.874L88.2071 408.101L88.0674 408.172L34.9489 514.769L0 532.303V533.38L35.52 515.558L35.6627 515.486ZM62.2189 382.237L168.307 329.01L168.45 328.938L221.565 222.341L327.653 169.114L327.796 169.04L380.912 62.4424L486.997 9.2121L487.139 9.14071L491.696 0H490.625L486.429 8.42683L380.34 61.654L380.198 61.7254L327.082 168.326L220.994 221.553L220.851 221.624L167.739 328.224L61.6509 381.448L61.5081 381.52L8.39269 488.12L0 492.332V493.406L9.10657 488.834L62.2189 382.237ZM805.118 807.921L760.731 897H761.798L805.832 808.632L893.896 764.446V763.372L805.261 807.846L805.118 807.921ZM738.867 741.22L738.725 741.291L685.609 847.892L587.731 897H589.869L686.18 848.677L686.323 848.605L739.435 742.008L845.523 688.781L845.666 688.707L893.896 591.918V589.77L844.952 687.993L738.867 741.22ZM752.145 754.545L752.003 754.616L698.887 861.216L627.565 897H629.706L699.458 862.001L699.601 861.93L752.717 755.333L858.802 702.106L858.944 702.034L893.896 631.891V629.744L858.234 701.317L752.145 754.545ZM791.84 474.795L738.725 581.396L632.636 634.62L632.497 634.694L579.378 741.291L473.29 794.518L473.147 794.59L422.121 897H423.192L473.861 795.307L579.949 742.08L580.092 742.008L633.208 635.405L739.296 582.181L739.435 582.11L792.554 475.509L893.896 424.66V423.589L791.983 474.721L791.84 474.795ZM818.399 501.445L765.284 608.042L659.193 661.269L659.05 661.344L605.938 767.944L499.849 821.168L499.707 821.242L461.958 897H463.029L500.421 821.956L606.509 768.729L606.651 768.658L659.764 662.057L765.852 608.83L765.995 608.759L819.11 502.162L893.896 464.637V463.566L818.539 501.373L818.399 501.445ZM831.677 514.769L778.562 621.37L672.474 674.597L672.331 674.668L619.216 781.268L513.128 834.492L512.985 834.564L481.875 897H482.946L513.699 835.281L619.787 782.054L619.929 781.982L673.042 675.382L779.13 622.158L779.273 622.083L832.388 515.486L893.896 484.622V483.551L831.82 514.698L831.677 514.769ZM805.118 488.12L752.003 594.72L645.915 647.944L645.775 648.016L592.659 754.616L486.571 807.846L486.429 807.921L442.041 897H443.109L487.139 808.632L593.227 755.404L593.37 755.333L646.486 648.733L752.574 595.506L752.717 595.434L805.832 488.834L893.896 444.651V443.58L805.261 488.049L805.118 488.12ZM765.424 767.869L765.284 767.944L712.168 874.541L667.402 897H669.541L712.736 875.329L712.879 875.255L765.995 768.658L872.083 715.43L872.226 715.359L893.896 671.865V669.721L871.512 714.642L765.424 767.869ZM858.234 861.216L840.402 897H841.473L858.944 861.93L893.896 844.397V843.323L858.376 861.145L858.234 861.216ZM844.952 528.094L791.84 634.694L685.752 687.921L685.609 687.993L632.497 794.59L526.409 847.817L526.266 847.892L501.796 897H502.866L526.977 848.605L633.065 795.378L633.208 795.307L686.323 688.707L792.411 635.476L792.554 635.405L845.666 528.811L893.896 504.614V503.537L845.095 528.023L844.952 528.094ZM871.512 874.541L860.319 897H861.39L872.226 875.255L893.896 864.385V863.308L871.654 874.469L871.512 874.541ZM884.79 887.866L880.24 897H881.307L885.504 888.582L893.896 884.371V883.297L884.932 887.794L884.79 887.866ZM778.705 781.197L778.562 781.268L725.446 887.866L707.24 897H709.378L726.018 888.654L726.16 888.582L779.273 781.982L885.361 728.752L885.504 728.681L893.896 711.839V709.695L884.79 727.97L778.705 781.197ZM844.952 847.892L820.485 897H821.553L845.666 848.605L893.896 824.408V823.334L845.095 847.817L844.952 847.892ZM791.84 794.59L740.813 897H741.881L792.554 795.307L893.896 744.46V743.386L791.983 794.518L791.84 794.59ZM831.677 834.564L800.568 897H801.636L832.388 835.281L893.896 804.423V803.349L831.82 834.492L831.677 834.564ZM818.399 821.242L780.648 897H781.719L819.11 821.956L893.896 784.434V783.357L818.539 821.168L818.399 821.242ZM844.952 208.3L791.84 314.897L685.752 368.124L685.609 368.195L632.497 474.792L526.409 528.023L526.266 528.094L473.147 634.694L367.062 687.921L366.92 687.993L313.804 794.59L207.716 847.817L207.573 847.892L183.106 897H184.174L208.287 848.605L314.375 795.378L314.518 795.307L367.633 688.707L473.718 635.476L473.861 635.405L526.98 528.811L633.065 475.581L633.208 475.509L686.323 368.912L792.411 315.685L792.554 315.614L845.666 209.017L893.896 184.819V183.745L845.095 208.228L844.952 208.3ZM871.512 75.05L765.424 128.277L765.284 128.352L712.168 234.952L606.08 288.176L605.938 288.247L552.822 394.848L446.737 448.075L446.594 448.146L393.476 554.743L287.388 607.97L287.245 608.042L234.129 714.642L128.041 767.869L127.902 767.944L74.7862 874.541L30.02 897H32.1616L75.3573 875.329L75.5001 875.255L128.612 768.658L234.701 715.43L234.843 715.359L287.956 608.759L394.047 555.532L394.19 555.46L447.305 448.857L553.393 395.633L553.533 395.561L606.651 288.964L712.736 235.737L712.879 235.666L765.995 129.066L872.083 75.8384L872.226 75.7639L893.896 32.2734V30.1286L871.512 75.05ZM858.234 541.422L805.118 648.016L699.03 701.246L698.887 701.317L645.775 807.921L539.684 861.145L539.544 861.216L521.713 897H522.783L540.258 861.93L646.346 808.703L646.486 808.632L699.601 702.034L805.689 648.804L805.832 648.733L858.944 542.133L893.896 524.599V523.528L858.376 541.35L858.234 541.422ZM831.677 194.975L778.562 301.572L672.474 354.802L672.331 354.874L619.216 461.468L513.128 514.698L512.985 514.769L459.872 621.37L353.784 674.597L353.642 674.668L300.523 781.268L194.438 834.492L194.295 834.564L163.186 897H164.257L195.006 835.281L301.094 782.054L301.237 781.982L354.352 675.382L460.444 622.158L460.583 622.083L513.699 515.486L619.787 462.256L619.929 462.185L673.042 355.584L779.13 302.36L779.273 302.289L832.388 195.689L893.896 164.831V163.757L831.82 194.904L831.677 194.975ZM778.705 141.605L778.562 141.676L725.446 248.273L619.358 301.501L619.216 301.572L566.1 408.172L460.012 461.396L459.872 461.468L406.754 568.068L300.666 621.298L300.523 621.37L247.411 727.97L141.323 781.197L141.18 781.268L88.0674 887.866L69.8605 897H71.999L88.6354 888.654L88.7782 888.582L141.891 781.982L247.982 728.752L248.121 728.681L301.237 622.083L407.325 568.856L407.468 568.785L460.583 462.185L566.671 408.957L566.814 408.886L619.929 302.289L726.018 249.062L726.16 248.99L779.273 142.39L885.361 89.1599L885.504 89.0885L893.896 72.2473V70.1026L884.79 88.3778L778.705 141.605ZM818.399 181.65L765.281 288.247L659.193 341.475L659.05 341.546L605.938 448.146L499.849 501.373L499.707 501.445L446.594 608.042L340.506 661.269L340.363 661.344L287.245 767.944L181.157 821.168L181.017 821.242L143.269 897H144.336L181.728 821.956L287.816 768.729L287.956 768.658L341.074 662.06L447.162 608.83L447.305 608.759L500.421 502.162L606.509 448.928L606.651 448.857L659.764 342.263L765.852 289.033L765.995 288.964L819.11 182.364L893.896 144.842V143.768L818.539 181.579L818.399 181.65ZM871.512 234.952L818.396 341.546L712.311 394.773L712.168 394.848L659.05 501.445L552.965 554.672L552.822 554.743L499.707 661.344L393.619 714.571L393.476 714.642L340.363 821.242L234.275 874.469L234.133 874.541L222.94 897H224.011L234.843 875.258L340.931 822.024L341.074 821.956L394.19 715.359L500.278 662.129L500.421 662.057L553.533 555.46L659.621 502.233L659.764 502.162L712.879 395.565L818.967 342.334L819.11 342.263L872.226 235.666L893.896 224.793V223.716L871.654 234.877L871.512 234.952ZM884.79 248.273L831.677 354.874L725.586 408.101L725.446 408.172L672.331 514.769L566.243 567.997L566.1 568.068L512.985 674.668L406.9 727.895L406.754 727.97L353.642 834.564L247.553 887.794L247.411 887.866L242.857 897H243.928L248.121 888.582L354.213 835.352L354.352 835.281L407.468 728.681L513.556 675.453L513.699 675.382L566.814 568.785L672.899 515.558L673.042 515.486L726.16 408.886L832.248 355.662L832.388 355.584L885.504 248.99L893.896 244.779V243.705L884.932 248.202L884.79 248.273ZM858.234 221.624L805.118 328.224L699.03 381.448L698.887 381.52L645.775 488.12L539.684 541.35L539.544 541.422L486.429 648.016L380.34 701.246L380.198 701.317L327.082 807.921L220.994 861.145L220.851 861.216L203.02 897H204.091L221.565 861.93L327.653 808.703L327.796 808.632L380.912 702.034L486.997 648.804L487.139 648.733L540.258 542.136L646.346 488.905L646.486 488.834L699.601 382.237L805.689 329.01L805.832 328.938L858.947 222.341L893.896 204.805V203.731L858.376 221.553L858.234 221.624ZM765.424 448.075L765.284 448.146L712.168 554.743L606.08 607.97L605.938 608.042L552.822 714.642L446.737 767.869L446.594 767.944L393.476 874.538L348.713 897H350.851L394.047 875.329L394.19 875.255L447.305 768.658L553.393 715.43L553.533 715.359L606.651 608.759L712.736 555.532L712.879 555.46L765.995 448.857L872.083 395.633L872.226 395.561L893.896 352.068V349.923L871.512 394.848L765.424 448.075ZM778.705 461.396L778.562 461.468L725.446 568.068L619.358 621.298L619.216 621.37L566.1 727.97L460.012 781.197L459.872 781.268L406.754 887.866L388.55 897H390.689L407.325 888.654L407.468 888.582L460.583 781.982L566.671 728.752L566.814 728.681L619.929 622.083L726.018 568.856L726.16 568.785L779.273 462.185L885.361 408.957L885.504 408.886L893.896 392.042V389.897L884.79 408.172L778.705 461.396ZM884.79 568.068L831.677 674.668L725.586 727.895L725.446 727.97L672.331 834.564L566.243 887.794L566.1 887.866L561.55 897H562.621L566.814 888.582L672.899 835.352L673.042 835.281L726.16 728.681L832.248 675.453L832.388 675.382L885.504 568.785L893.896 564.573V563.499L884.932 567.997L884.79 568.068ZM871.512 554.743L818.399 661.344L712.311 714.571L712.168 714.642L659.05 821.242L552.965 874.469L552.822 874.541L541.63 897H542.701L553.533 875.255L659.621 822.024L659.764 821.956L712.879 715.359L818.967 662.129L819.11 662.057L872.226 555.46L893.896 544.588V543.514L871.654 554.672L871.512 554.743ZM805.118 168.326L752.003 274.923L645.915 328.15L645.775 328.224L592.659 434.822L486.571 488.049L486.429 488.12L433.313 594.72L327.225 647.944L327.082 648.016L273.97 754.616L167.879 807.846L167.739 807.921L123.348 897H124.419L168.45 808.632L274.538 755.404L274.681 755.333L327.796 648.733L433.884 595.506L434.027 595.434L487.139 488.834L593.227 435.61L593.37 435.535L646.489 328.938L752.574 275.708L752.717 275.637L805.832 169.04L893.896 124.854V123.78L805.261 168.254L805.118 168.326ZM791.84 155.001L738.725 261.598L632.636 314.825L632.497 314.897L579.378 421.494L473.29 474.721L473.147 474.795L420.035 581.396L313.947 634.62L313.804 634.694L260.689 741.291L154.601 794.518L154.458 794.59L103.431 897H104.502L155.172 795.307L261.26 742.08L261.403 742.008L314.518 635.405L420.606 582.181L420.749 582.11L473.861 475.509L579.949 422.285L580.092 422.211L633.208 315.614L739.296 262.386L739.435 262.312L792.554 155.715L893.896 104.868V103.794L791.983 154.93L791.84 155.001ZM738.867 421.425L738.725 421.497L685.609 528.094L579.521 581.321L579.378 581.396L526.266 687.993L420.178 741.22L420.035 741.291L366.92 847.892L269.041 897H271.18L367.491 848.677L367.633 848.605L420.749 742.008L526.834 688.781L526.977 688.707L580.092 582.11L686.18 528.882L686.323 528.811L739.435 422.211L845.523 368.98L845.666 368.912L893.896 272.12V269.975L844.952 368.195L738.867 421.425ZM752.145 434.75L752.003 434.822L698.887 541.422L592.802 594.649L592.659 594.72L539.544 701.317L433.456 754.545L433.313 754.616L380.198 861.216L308.875 897H311.017L380.769 862.001L380.912 861.93L434.027 755.333L540.115 702.106L540.258 702.034L593.373 595.434L699.458 542.204L699.601 542.133L752.717 435.535L858.802 382.308L858.944 382.237L893.896 312.094V309.949L858.234 381.52L752.145 434.75Z" fill="#2A468D"/>
</svg>