<svg xmlns="http://www.w3.org/2000/svg" width="1918" height="273" viewBox="0 0 1918 273" fill="none">
  <path fill-rule="evenodd" clip-rule="evenodd" d="M218.879 202.128L332.805 149.767L560.338 123.624L560.644 123.587L674.563 71.2271L902.096 45.0822L902.403 45.0456L1016.32 -7.31429L1243.85 -33.4607L1244.15 -33.4942L1353.6 -83.8005H1351.31L1242.62 -33.8464L1015.09 -7.70001L1014.78 -7.66495L900.871 44.6949L673.339 70.8398L673.032 70.8749L559.113 123.236L331.58 149.38L331.274 149.416L217.354 201.778L0 226.753V227.281L218.579 202.163L218.879 202.128ZM133.444 -53.1292L360.977 -79.2756L361.283 -79.3107L371.049 -83.8005H368.759L359.759 -79.6613L132.226 -53.5164L131.92 -53.4814L18.0003 -1.11996L0 0.947365V1.47639L19.5313 -0.769302L133.444 -53.1292ZM48.0029 5.77568L161.929 -46.5857L389.455 -72.7291L389.761 -72.7642L413.773 -83.8005H411.476L388.237 -73.1163L160.704 -46.9715L160.398 -46.9364L46.4785 5.42503L0 10.7671V11.2931L47.7033 5.81075L48.0029 5.77568ZM304.014 64.7171L304.32 64.6821L418.246 12.3207L645.772 -13.8242L646.079 -13.8593L759.998 -66.2192L912.994 -83.8005H908.407L758.78 -66.6064L758.474 -66.5714L644.547 -14.2099L417.021 11.935L416.715 11.97L302.796 64.3299L75.2629 90.4763L74.9567 90.5114L0 124.965V126.019L76.4878 90.862L304.014 64.7171ZM275.536 58.1706L275.842 58.1371L389.761 5.77568L617.294 -20.3692L617.594 -20.4043L731.52 -72.7642L827.552 -83.8005H822.966L730.302 -73.1514L729.995 -73.1163L616.069 -20.7549L388.537 5.38996L388.237 5.42503L274.317 57.7849L46.7847 83.9298L46.4785 83.9649L0 105.33V106.385L48.0029 84.317L275.536 58.1706ZM332.499 71.2621L332.805 71.2271L446.718 18.8672L674.257 -7.2777L674.563 -7.31429L788.483 -59.6742L998.428 -83.8005H993.842L787.258 -60.0614L786.952 -60.0248L673.032 -7.66495L445.5 18.4799L445.193 18.515L331.274 70.8749L103.748 97.0198L103.442 97.0548L0 144.6V145.655L104.966 97.407L332.499 71.2621ZM76.4878 12.3207L190.407 -40.0408L417.94 -66.1841L418.24 -66.2192L456.49 -83.8005H454.2L416.715 -66.5714L189.182 -40.4265L188.883 -40.3899L74.9567 11.97L0 20.5839V21.1098L76.1815 12.3557L76.4878 12.3207ZM247.057 51.6257L247.364 51.5906L361.283 -0.769302L588.816 -26.9142L589.122 -26.9493L703.042 -79.3107L742.111 -83.8005H737.531L701.817 -79.6964L701.511 -79.6613L587.598 -27.3014L360.058 -1.15502L359.759 -1.11996L245.833 51.2399L18.3065 77.3848L18.0003 77.4214L0 85.6953V86.7487L19.5313 77.772L247.057 51.6257ZM229.477 -83.8005H224.89L75.2629 -66.6064L74.9567 -66.5714L0 -32.1175V-31.0625L76.4878 -66.2192L229.477 -83.8005ZM314.918 -83.8005H310.331L103.748 -60.0614L103.442 -60.0248L0 -12.4811V-11.4276L104.966 -59.6742L314.918 -83.8005V-83.8005ZM144.042 -83.8005H139.455L46.7847 -73.1514L46.4785 -73.1163L0 -51.751V-50.6975L48.0029 -72.7642L144.042 -83.8005V-83.8005ZM218.879 45.0456L332.805 -7.31429L560.338 -33.4607L560.644 -33.4942L670.09 -83.8005H667.8L559.113 -33.8464L331.58 -7.70001L331.274 -7.66495L217.354 44.6949L0 69.6705V70.198L218.579 45.0822L218.879 45.0456ZM133.444 25.4122L247.364 -26.9493L474.896 -53.0941L475.203 -53.1292L541.931 -83.8005H539.635L473.672 -53.4814L246.139 -27.3365L245.833 -27.3014L131.92 25.06L0 40.2188V40.7463L133.145 25.4472L133.444 25.4122ZM190.407 38.5021L304.32 -13.8593L531.86 -40.0057L532.159 -40.0408L627.366 -83.8005H625.069L530.635 -40.3899L303.102 -14.245L302.796 -14.2099L188.883 38.15L0 59.8538V60.3813L190.101 38.5372L190.407 38.5021ZM161.929 31.9571L275.842 -20.4043L503.375 -46.5491L503.681 -46.5857L584.649 -83.8005H582.352L502.156 -46.9364L274.617 -20.7915L274.317 -20.7549L160.398 31.6065L0 50.037V50.5645L161.623 31.9922L161.929 31.9571ZM104.966 18.8672L218.879 -33.4942L446.418 -59.6391L446.718 -59.6742L499.207 -83.8005H496.918L445.193 -60.0248L217.661 -33.8815L217.354 -33.8464L103.442 18.515L0 30.4006V30.9281L104.66 18.9022L104.966 18.8672ZM48.0029 162.858L161.929 110.497L389.455 84.3521L389.761 84.317L503.681 31.9571L731.214 5.81075L731.52 5.77568L845.439 -46.5857L1072.97 -72.7291L1073.28 -72.7642L1097.28 -83.8005H1094.99L1071.75 -73.1163L844.215 -46.9715L843.908 -46.9364L729.995 5.42503L502.463 31.5699L502.156 31.6065L388.237 83.9649L160.704 110.11L160.398 110.146L46.4785 162.506L0 167.847V168.374L47.7033 162.893L48.0029 162.858ZM104.966 333.03L218.879 280.67L446.418 254.525L446.718 254.488L560.644 202.128L788.177 175.983L788.483 175.948L902.403 123.587L1129.93 97.4406L1130.23 97.407L1244.15 45.0456L1471.69 18.9022L1471.99 18.8672L1585.91 -33.4942L1813.44 -59.6391L1813.75 -59.6742L1866.23 -83.8005H1863.94L1812.21 -60.0248L1584.69 -33.8815L1584.38 -33.8464L1470.46 18.515L1242.93 44.6599L1242.62 44.6949L1128.71 97.0548L901.178 123.201L900.871 123.236L786.952 175.596L559.419 201.741L559.113 201.778L445.193 254.138L217.661 280.282L217.354 280.318L103.442 332.679L0 344.565V345.09L104.66 333.065L104.966 333.03ZM190.407 195.583L304.32 143.222L531.86 117.077L532.159 117.042L646.079 64.6821L873.611 38.5372L873.918 38.5021L987.837 -13.8593L1215.37 -40.0057L1215.68 -40.0408L1310.88 -83.8005H1308.59L1214.15 -40.3899L986.612 -14.245L986.313 -14.2099L872.387 38.15L644.854 64.2948L644.547 64.3299L530.635 116.691L303.102 142.835L302.796 142.87L188.883 195.231L0 216.936V217.462L190.101 195.618L190.407 195.583ZM332.499 228.342L332.805 228.307L446.718 175.948L674.257 149.802L674.563 149.767L788.483 97.407L1016.01 71.2621L1016.32 71.2271L1130.23 18.8672L1357.77 -7.2777L1358.07 -7.31429L1471.99 -59.6742L1681.95 -83.8005H1677.35L1470.77 -60.0614L1470.46 -60.0248L1356.55 -7.66495L1129.02 18.4799L1128.71 18.515L1014.78 70.8749L787.258 97.0198L786.952 97.0548L673.032 149.416L445.5 175.561L445.193 175.596L331.274 227.958L103.748 254.103L103.442 254.138L0 301.683V302.736L104.966 254.49L332.499 228.342ZM133.444 339.575L247.364 287.215L474.896 261.07L475.203 261.035L589.122 208.673L816.655 182.527L816.961 182.492L930.881 130.132L1158.41 103.987L1158.72 103.952L1272.63 51.5906L1500.17 25.4472L1500.47 25.4122L1614.39 -26.9493L1841.92 -53.0941L1842.22 -53.1292L1908.96 -83.8005H1906.66L1840.7 -53.4814L1613.17 -27.3365L1612.86 -27.3014L1498.94 25.06L1271.41 51.2049L1271.11 51.2399L1157.19 103.6L929.656 129.746L929.35 129.781L815.43 182.143L587.897 208.288L587.598 208.323L473.672 260.683L246.139 286.827L245.833 286.863L131.92 339.224L0 354.383V354.91L133.145 339.61L133.444 339.575ZM304.014 221.8L304.32 221.763L418.24 169.403L645.772 143.257L646.079 143.222L759.998 90.8605L987.538 64.7171L987.837 64.6821L1101.76 12.3207L1329.29 -13.8242L1329.6 -13.8593L1443.51 -66.2192L1596.5 -83.8005H1591.92L1442.29 -66.6064L1441.98 -66.5714L1328.06 -14.2099L1100.53 11.935L1100.23 11.97L986.313 64.3299L758.78 90.4763L758.474 90.5114L644.547 142.87L417.021 169.016L416.715 169.051L302.796 221.413L75.2629 247.558L74.9567 247.593L0 282.046V283.101L76.4878 247.945L304.014 221.8ZM133.444 261.035L360.977 234.888L361.283 234.853L475.203 182.492L702.735 156.347L703.042 156.312L816.961 103.952L1044.49 77.8071L1044.79 77.772L1158.72 25.4122L1386.25 -0.732719L1386.55 -0.769302L1500.47 -53.1292L1728 -79.2756L1728.31 -79.3107L1738.08 -83.8005H1735.79L1726.78 -79.6613L1499.25 -53.5164L1498.94 -53.4814L1385.03 -1.11996L1157.49 25.0249L1157.19 25.06L1043.26 77.4214L815.736 103.565L815.43 103.6L701.511 155.96L473.978 182.108L473.672 182.143L359.759 234.501L132.226 260.648L131.92 260.683L18.0003 313.046L0 315.111V315.639L19.5313 313.395L133.444 261.035ZM48.0029 319.94L161.929 267.58L389.455 241.433L389.761 241.398L503.681 189.038L731.214 162.893L731.52 162.858L845.439 110.497L1072.97 84.3521L1073.28 84.317L1187.19 31.9571L1414.72 5.81075L1415.03 5.77568L1528.95 -46.5857L1756.48 -72.7291L1756.79 -72.7642L1780.8 -83.8005H1778.5L1755.26 -73.1163L1527.73 -46.9715L1527.43 -46.9364L1413.5 5.42503L1185.97 31.5699L1185.67 31.6065L1071.75 83.9649L844.215 110.11L843.908 110.146L729.995 162.506L502.463 188.651L502.156 188.686L388.237 241.048L160.704 267.192L160.398 267.228L46.4785 319.589L0 324.931V325.457L47.7033 319.973L48.0029 319.94ZM76.4878 326.485L190.414 274.123L417.94 247.978L418.24 247.943L532.159 195.583L759.699 169.438L759.998 169.403L873.918 117.042L1101.45 90.8986L1101.76 90.8605L1215.68 38.5021L1443.2 12.3557L1443.51 12.3207L1557.43 -40.0408L1784.97 -66.1841L1785.27 -66.2192L1823.52 -83.8005H1821.22L1783.74 -66.5714L1556.2 -40.4265L1555.9 -40.3899L1441.98 11.97L1214.45 38.1149L1214.15 38.15L1100.23 90.5114L872.699 116.656L872.387 116.691L758.474 169.051L530.941 195.196L530.635 195.231L416.715 247.593L189.182 273.737L188.883 273.774L74.9567 326.132L0 334.748V335.274L76.1815 326.52L76.4878 326.485ZM104.966 175.948L218.879 123.587L446.418 97.4406L446.718 97.407L560.644 45.0456L788.177 18.9022L788.483 18.8672L902.403 -33.4942L1129.93 -59.6391L1130.23 -59.6742L1182.72 -83.8005H1180.43L1128.71 -60.0248L901.178 -33.8815L900.871 -33.8464L786.952 18.515L559.419 44.6599L559.113 44.6949L445.193 97.0548L217.661 123.201L217.354 123.236L103.442 175.596L0 187.483V188.011L104.66 175.983L104.966 175.948ZM133.444 182.492L247.364 130.132L474.896 103.987L475.203 103.952L589.122 51.5906L816.655 25.4472L816.961 25.4122L930.881 -26.9493L1158.41 -53.0941L1158.72 -53.1292L1225.44 -83.8005H1223.15L1157.19 -53.4814L929.656 -27.3365L929.35 -27.3014L815.43 25.06L587.897 51.2049L587.598 51.2399L473.672 103.6L246.139 129.746L245.833 129.781L131.92 182.143L0 197.3V197.828L133.145 182.527L133.444 182.492ZM161.929 189.038L275.842 136.675L503.375 110.532L503.681 110.497L617.594 58.1371L845.133 31.9922L845.439 31.9571L959.366 -20.4043L1186.89 -46.5491L1187.19 -46.5857L1268.16 -83.8005H1265.87L1185.67 -46.9364L958.141 -20.7915L957.835 -20.7549L843.908 31.6065L616.376 57.7499L616.069 57.7849L502.156 110.146L274.617 136.291L274.317 136.326L160.398 188.686L0 207.117V207.644L161.623 189.073L161.929 189.038ZM58.6007 -83.8005H54.0141L18.3065 -79.6964L18.0003 -79.6613L0 -71.3875V-70.3325L19.5313 -79.3107L58.6007 -83.8005V-83.8005ZM247.057 208.708L247.364 208.673L361.283 156.312L588.816 130.169L589.122 130.132L703.042 77.772L930.575 51.6257L930.881 51.5906L1044.79 -0.769302L1272.33 -26.9142L1272.63 -26.9493L1386.55 -79.3107L1425.63 -83.8005H1421.03L1385.33 -79.6964L1385.03 -79.6613L1271.1 -27.3014L1043.58 -1.15502L1043.27 -1.11996L929.35 51.2399L701.817 77.3848L701.511 77.4214L587.598 129.78L360.058 155.926L359.759 155.961L245.833 208.323L18.3065 234.466L18.0003 234.501L0 242.776V243.831L19.5313 234.853L247.057 208.708ZM275.536 215.253L275.842 215.218L389.761 162.858L617.294 136.71L617.594 136.675L731.52 84.317L959.053 58.1706L959.359 58.1371L1073.28 5.77568L1300.81 -20.3692L1301.12 -20.4043L1415.03 -72.7642L1511.06 -83.8005H1506.48L1413.81 -73.1514L1413.5 -73.1163L1299.59 -20.7549L1072.05 5.38996L1071.75 5.42503L957.835 57.7849L730.302 83.9298L729.995 83.9649L616.069 136.325L388.537 162.471L388.237 162.506L274.317 214.866L46.7847 241.011L46.4785 241.048L0 262.411V263.465L48.0029 241.398L275.536 215.253ZM76.4878 169.403L190.407 117.042L417.94 90.8986L418.24 90.8605L532.159 38.5021L759.699 12.3557L759.998 12.3207L873.918 -40.0408L1101.45 -66.1841L1101.76 -66.2192L1140.01 -83.8005H1137.71L1100.23 -66.5714L872.699 -40.4265L872.387 -40.3899L758.474 11.97L530.941 38.1149L530.635 38.15L416.715 90.5114L189.182 116.656L188.883 116.691L74.9567 169.051L0 177.664V178.193L76.1815 169.438L76.4878 169.403ZM133.444 103.952L360.977 77.8071L361.283 77.772L475.203 25.4122L702.735 -0.732719L703.042 -0.769302L816.961 -53.1292L1044.49 -79.2756L1044.79 -79.3107L1054.57 -83.8005H1052.27L1043.27 -79.6613L815.736 -53.5164L815.43 -53.4814L701.511 -1.11996L473.978 25.0249L473.672 25.06L359.759 77.4214L132.226 103.565L131.92 103.6L18.0003 155.961L0 158.03V158.558L19.5313 156.312L133.444 103.952ZM1726.78 313.046L1631.58 356.801H1633.87L1728.31 313.395L1917.19 291.691V291.163L1727.09 313.009L1726.78 313.046ZM1584.69 280.282L1584.38 280.318L1470.46 332.679L1260.54 356.801H1265.12L1471.69 333.065L1471.99 333.03L1585.91 280.67L1813.44 254.525L1813.75 254.488L1917.19 206.946V205.891L1812.21 254.138L1584.69 280.282ZM1613.17 286.827L1612.86 286.863L1498.94 339.224L1345.97 356.801H1350.56L1500.17 339.61L1500.47 339.575L1614.39 287.215L1841.92 261.07L1842.22 261.035L1917.19 226.581V225.526L1840.7 260.683L1613.17 286.827ZM1698.3 149.416L1584.38 201.778L1356.85 227.921L1356.55 227.958L1242.62 280.318L1015.09 306.462L1014.78 306.497L905.345 356.801H907.641L1016.32 306.85L1243.85 280.705L1244.15 280.67L1358.07 228.307L1585.61 202.163L1585.91 202.128L1699.83 149.767L1917.19 124.79V124.264L1698.61 149.38L1698.3 149.416ZM1755.26 162.506L1641.34 214.866L1413.81 241.011L1413.5 241.048L1299.59 293.409L1072.05 319.552L1071.75 319.589L990.786 356.801H993.083L1073.28 319.94L1300.81 293.795L1301.12 293.76L1415.03 241.398L1642.56 215.253L1642.87 215.218L1756.79 162.858L1917.19 144.426V143.9L1755.56 162.471L1755.26 162.506ZM1783.74 169.051L1669.82 221.413L1442.29 247.558L1441.98 247.593L1328.06 299.954L1100.53 326.097L1100.23 326.132L1033.5 356.801H1035.8L1101.76 326.485L1329.29 300.34L1329.6 300.305L1443.51 247.943L1671.04 221.8L1671.35 221.763L1785.27 169.403L1917.19 154.243V153.717L1784.05 169.016L1783.74 169.051ZM1726.78 155.961L1612.86 208.323L1385.33 234.466L1385.03 234.501L1271.11 286.863L1043.58 313.009L1043.27 313.046L948.069 356.801H950.359L1044.79 313.395L1272.33 287.25L1272.63 287.215L1386.55 234.853L1614.08 208.708L1614.39 208.673L1728.31 156.312L1917.19 134.61V134.084L1727.09 155.926L1726.78 155.961ZM1641.64 293.372L1641.34 293.409L1527.43 345.769L1431.41 356.801H1436L1528.64 346.156L1528.95 346.12L1642.87 293.76L1870.4 267.615L1870.71 267.58L1917.19 246.216V245.162L1869.18 267.228L1641.64 293.372ZM1840.7 339.224L1802.46 356.801H1804.75L1842.22 339.575L1917.19 330.962V330.435L1841.01 339.189L1840.7 339.224ZM1812.21 175.596L1698.3 227.958L1470.77 254.103L1470.46 254.138L1356.55 306.497L1129.02 332.642L1128.71 332.679L1076.23 356.801H1078.52L1130.23 333.03L1357.77 306.885L1358.07 306.85L1471.99 254.488L1699.53 228.342L1699.83 228.307L1813.75 175.948L1917.19 164.063V163.534L1812.52 175.561L1812.21 175.596ZM1869.18 345.769L1845.17 356.801H1847.47L1870.71 346.12L1917.19 340.781V340.251L1869.48 345.734L1869.18 345.769ZM1897.66 352.314L1887.9 356.801H1890.19L1899.19 352.666L1917.19 350.597V350.07L1897.96 352.279L1897.66 352.314ZM1670.13 299.919L1669.82 299.954L1555.9 352.314L1516.85 356.801H1521.44L1557.13 352.701L1557.43 352.666L1671.35 300.305L1898.88 274.158L1899.19 274.123L1917.19 265.851V264.797L1897.66 273.774L1670.13 299.919ZM1812.21 332.679L1759.74 356.801H1762.03L1813.75 333.03L1917.19 321.144V320.617L1812.52 332.642L1812.21 332.679ZM1698.3 306.497L1588.86 356.801H1591.15L1699.83 306.85L1917.19 281.874V281.347L1698.61 306.462L1698.3 306.497ZM1783.74 326.132L1717.02 356.801H1719.31L1785.27 326.485L1917.19 311.327V310.8L1784.05 326.097L1783.74 326.132ZM1755.26 319.589L1674.3 356.801H1676.59L1756.79 319.94L1917.19 301.509V300.98L1755.56 319.552L1755.26 319.589ZM1812.21 18.515L1698.3 70.8749L1470.77 97.0198L1470.46 97.0548L1356.55 149.415L1129.02 175.561L1128.71 175.596L1014.78 227.958L787.258 254.103L786.952 254.138L673.032 306.497L445.5 332.642L445.193 332.679L392.717 356.801H395.007L446.724 333.03L674.257 306.885L674.563 306.85L788.483 254.488L1016.01 228.342L1016.32 228.307L1130.24 175.948L1357.77 149.802L1358.07 149.767L1471.99 97.407L1699.53 71.2621L1699.83 71.2271L1813.75 18.8672L1917.19 6.98161V6.45412L1812.52 18.4799L1812.21 18.515ZM1869.18 -46.9364L1641.64 -20.7915L1641.34 -20.7549L1527.43 31.6065L1299.89 57.7499L1299.59 57.7849L1185.67 110.146L958.141 136.291L957.835 136.326L843.908 188.686L616.376 214.831L616.069 214.866L502.15 267.228L274.617 293.372L274.317 293.409L160.398 345.769L64.3855 356.801H68.9788L161.623 346.156L161.929 346.12L275.842 293.76L503.375 267.615L503.681 267.58L617.594 215.218L845.133 189.073L845.439 189.038L959.359 136.675L1186.89 110.532L1187.19 110.497L1301.12 58.1371L1528.64 31.9922L1528.95 31.9571L1642.87 -20.4043L1870.4 -46.5491L1870.71 -46.5857L1917.19 -67.948V-69.0015L1869.18 -46.9364ZM1840.7 182.143L1726.78 234.501L1499.25 260.648L1498.94 260.683L1385.03 313.046L1157.49 339.189L1157.19 339.224L1118.94 356.801H1121.24L1158.72 339.575L1386.25 313.43L1386.55 313.395L1500.47 261.035L1728 234.888L1728.31 234.853L1842.22 182.492L1917.19 173.88V173.354L1841.01 182.108L1840.7 182.143ZM1783.74 11.97L1669.82 64.3299L1442.29 90.4763L1441.98 90.5114L1328.06 142.87L1100.53 169.016L1100.23 169.051L986.313 221.413L758.78 247.558L758.474 247.593L644.547 299.954L417.021 326.097L416.715 326.132L349.993 356.801H352.29L418.24 326.485L645.772 300.34L646.079 300.305L759.998 247.943L987.538 221.8L987.837 221.763L1101.76 169.403L1329.29 143.257L1329.6 143.222L1443.51 90.8605L1671.04 64.7171L1671.35 64.6821L1785.27 12.3207L1917.19 -2.83663V-3.36413L1784.05 11.935L1783.74 11.97ZM1670.13 -14.245L1669.82 -14.2099L1555.9 38.15L1328.37 64.2948L1328.06 64.3299L1214.15 116.691L986.612 142.835L986.313 142.87L872.387 195.231L644.854 221.378L644.547 221.413L530.635 273.774L303.102 299.919L302.796 299.954L188.883 352.314L149.833 356.801H154.42L190.101 352.701L190.407 352.666L304.32 300.305L531.86 274.158L532.159 274.123L646.079 221.763L873.611 195.618L873.918 195.583L987.837 143.222L1215.37 117.077L1215.68 117.042L1329.6 64.6821L1557.13 38.5372L1557.43 38.5021L1671.35 -13.8593L1898.88 -40.0057L1899.19 -40.0408L1917.19 -48.3131V-49.3666L1897.66 -40.3899L1670.13 -14.245ZM1755.26 5.42503L1641.34 57.7849L1413.81 83.9298L1413.5 83.9649L1299.59 136.326L1072.05 162.471L1071.75 162.506L957.835 214.866L730.302 241.011L729.995 241.048L616.069 293.409L388.537 319.552L388.237 319.589L307.276 356.801H309.566L389.761 319.94L617.294 293.795L617.594 293.76L731.52 241.4L959.053 215.253L959.359 215.218L1073.28 162.858L1300.81 136.71L1301.12 136.675L1415.03 84.317L1642.56 58.1706L1642.87 58.1371L1756.79 5.77568L1917.19 -12.6549V-13.1824L1755.56 5.38996L1755.26 5.42503ZM1869.18 31.6065L1755.26 83.9649L1527.73 110.11L1527.43 110.146L1413.5 162.506L1185.97 188.651L1185.67 188.686L1071.75 241.048L844.215 267.192L843.908 267.228L729.995 319.589L502.463 345.734L502.156 345.769L478.152 356.801H480.448L503.681 346.121L731.214 319.973L731.52 319.94L845.439 267.58L1072.97 241.433L1073.28 241.398L1187.19 189.038L1414.72 162.893L1415.03 162.858L1528.95 110.499L1756.48 84.3521L1756.79 84.317L1870.71 31.9571L1917.19 26.6166V26.0876L1869.48 31.5699L1869.18 31.6065ZM1897.66 38.15L1783.74 90.5114L1556.2 116.656L1555.9 116.691L1441.98 169.051L1214.45 195.196L1214.15 195.231L1100.23 247.593L872.699 273.737L872.387 273.774L758.474 326.132L530.941 352.279L530.635 352.314L520.869 356.801H523.166L532.159 352.666L759.699 326.52L759.998 326.485L873.918 274.123L1101.45 247.978L1101.76 247.943L1215.68 195.583L1443.2 169.438L1443.51 169.403L1557.43 117.042L1784.97 90.8986L1785.27 90.8605L1899.19 38.5021L1917.19 36.4333V35.9058L1897.96 38.1149L1897.66 38.15ZM1840.7 25.06L1726.78 77.4214L1499.25 103.565L1498.94 103.6L1385.03 155.961L1157.49 182.108L1157.19 182.143L1043.27 234.501L815.736 260.648L815.43 260.683L701.511 313.046L473.978 339.189L473.672 339.224L435.428 356.801H437.724L475.203 339.575L702.735 313.43L703.042 313.395L816.961 261.035L1044.49 234.888L1044.79 234.853L1158.72 182.493L1386.25 156.347L1386.55 156.312L1500.47 103.952L1728 77.8071L1728.31 77.772L1842.23 25.4122L1917.19 16.7983V16.2708L1841.01 25.0249L1840.7 25.06ZM1641.64 136.291L1641.34 136.326L1527.43 188.686L1299.89 214.831L1299.59 214.866L1185.67 267.228L958.141 293.372L957.835 293.409L843.908 345.767L747.903 356.801H752.489L845.133 346.156L845.439 346.12L959.359 293.76L1186.89 267.615L1187.19 267.58L1301.12 215.218L1528.64 189.073L1528.95 189.038L1642.87 136.675L1870.4 110.532L1870.71 110.497L1917.19 89.1332V88.0797L1869.18 110.146L1641.64 136.291ZM1670.13 142.835L1669.82 142.87L1555.9 195.231L1328.37 221.378L1328.06 221.413L1214.15 273.774L986.612 299.919L986.313 299.954L872.387 352.314L833.344 356.801H837.93L873.611 352.701L873.918 352.666L987.837 300.305L1215.37 274.158L1215.68 274.123L1329.6 221.763L1557.13 195.618L1557.43 195.583L1671.35 143.222L1898.88 117.077L1899.19 117.042L1917.19 108.768V107.715L1897.66 116.691L1670.13 142.835ZM1897.66 195.231L1783.74 247.593L1556.2 273.737L1555.9 273.774L1441.98 326.132L1214.45 352.279L1214.15 352.314L1204.39 356.801H1206.68L1215.68 352.666L1443.2 326.52L1443.51 326.485L1557.43 274.123L1784.97 247.978L1785.27 247.943L1899.19 195.583L1917.19 193.515V192.987L1897.96 195.196L1897.66 195.231ZM1869.18 188.686L1755.26 241.048L1527.73 267.192L1527.43 267.228L1413.5 319.589L1185.97 345.734L1185.67 345.769L1161.66 356.801H1163.96L1187.19 346.12L1414.72 319.973L1415.03 319.94L1528.95 267.58L1756.48 241.433L1756.79 241.398L1870.71 189.038L1917.19 183.698V183.17L1869.48 188.651L1869.18 188.686ZM1726.78 -1.11996L1612.86 51.2399L1385.33 77.3848L1385.03 77.4214L1271.11 129.781L1043.58 155.926L1043.27 155.961L929.35 208.323L701.817 234.466L701.511 234.501L587.598 286.863L360.058 313.009L359.759 313.046L264.552 356.801H266.848L361.283 313.395L588.816 287.25L589.122 287.215L703.042 234.853L930.575 208.708L930.881 208.673L1044.79 156.312L1272.33 130.169L1272.63 130.132L1386.56 77.772L1614.08 51.6257L1614.39 51.5906L1728.31 -0.769302L1917.19 -22.4731V-23.0006L1727.09 -1.15502L1726.78 -1.11996ZM1698.3 -7.66495L1584.38 44.6949L1356.85 70.8398L1356.55 70.8749L1242.62 123.235L1015.09 149.38L1014.78 149.416L900.871 201.778L673.339 227.921L673.032 227.958L559.113 280.318L331.58 306.462L331.274 306.497L221.834 356.801H224.131L332.805 306.85L560.338 280.705L560.644 280.67L674.563 228.307L902.096 202.163L902.403 202.128L1016.32 149.767L1243.85 123.624L1244.15 123.587L1358.07 71.2271L1585.61 45.0822L1585.91 45.0456L1699.83 -7.31429L1917.19 -32.2898V-32.8173L1698.61 -7.70001L1698.3 -7.66495ZM1584.69 123.201L1584.38 123.236L1470.46 175.596L1242.93 201.741L1242.62 201.778L1128.71 254.138L901.178 280.282L900.871 280.318L786.952 332.679L577.027 356.801H581.613L788.177 333.065L788.483 333.03L902.403 280.67L1129.93 254.525L1130.23 254.488L1244.15 202.128L1471.69 175.983L1471.99 175.948L1585.91 123.587L1813.44 97.4406L1813.75 97.407L1917.19 49.8633V48.8098L1812.21 97.0548L1584.69 123.201ZM1613.17 129.746L1612.86 129.781L1498.94 182.143L1271.41 208.288L1271.11 208.323L1157.19 260.683L929.656 286.827L929.35 286.863L815.43 339.224L662.461 356.801H667.055L816.655 339.61L816.961 339.575L930.881 287.215L1158.41 261.07L1158.72 261.035L1272.64 208.673L1500.17 182.527L1500.47 182.492L1614.39 130.132L1841.92 103.987L1842.22 103.952L1917.19 69.4982V68.4447L1840.7 103.6L1613.17 129.746Z" fill="#2A468D"/>
</svg>