<svg xmlns="http://www.w3.org/2000/svg" width="42" height="49" viewBox="0 0 42 49" fill="none">
  <g clip-path="url(#clip0_130_0)">
    <path fill-rule="evenodd" clip-rule="evenodd" d="M40.5038 48.9257V47.4713H39.4834V27.5461L24.9916 21.527L18.3692 27.4627L18.2162 49.0151H25.1242L25.0018 24.2176L36.6343 28.9445V48.906L40.5038 48.9257Z" fill="#182B5A"/>
    <path d="M23.1929 47.4871H0.16626V49.0148H23.1929V47.4871Z" fill="#182B5A"/>
    <path fill-rule="evenodd" clip-rule="evenodd" d="M30.2571 25.3325L30.1659 19.5062L16.562 13.6966L10.0965 20.377L10.0479 49.0155H16.8339L16.729 17.1319L27.8652 21.5273L27.8313 25.3107L30.2571 25.3325Z" fill="#182B5A"/>
    <path fill-rule="evenodd" clip-rule="evenodd" d="M34.916 30.6929L27.7251 27.9337V31.3555L34.916 33.5895V30.6929Z" fill="#182B5A"/>
    <path fill-rule="evenodd" clip-rule="evenodd" d="M34.916 35.9173L27.7251 34.169V37.5451L34.916 38.3726V35.9173Z" fill="#182B5A"/>
    <path fill-rule="evenodd" clip-rule="evenodd" d="M34.916 40.6974L27.7251 40.2751V43.1998L34.916 43.2013V40.6974Z" fill="#182B5A"/>
    <path fill-rule="evenodd" clip-rule="evenodd" d="M34.916 45.9445L27.7251 45.9247V48.9189L34.916 48.9204V45.9445Z" fill="#182B5A"/>
    <path fill-rule="evenodd" clip-rule="evenodd" d="M21.5418 15.9361C21.5418 15.6888 21.6218 11.3219 21.6218 11.3219L7.88226 5.42847L1.45677 12.3353L1.05172 47.4516L0.179582 47.475L0.16626 49.0148H7.8188L7.99565 7.77955L19.2428 12.575C19.2428 12.575 19.1317 18.0409 19.1317 18.0381C19.1317 18.0409 21.5417 15.9389 21.5418 15.9361Z" fill="#182B5A"/>
    <path fill-rule="evenodd" clip-rule="evenodd" d="M41.8379 9.56602L41.8375 6.45789L37.2995 4.57384V1.4064L33.912 0V3.28341L33.291 3.02555C33.291 3.02555 29.364 0.971527 29.364 5.63132V10.6884L38.7363 14.5796V16.2477C38.7363 16.2477 39.0505 18.0196 37.1132 17.2153C35.1759 16.4109 29.4425 14.0305 29.4425 14.0305V17.0754L34.1025 19.0102V22.2932L37.3488 23.641V20.358C37.3488 20.358 41.9564 22.1134 41.9564 17.9294V12.66L32.6103 8.77957L32.5579 7.06335C32.5579 7.06335 32.715 5.77822 34.1811 6.38695C35.6471 6.99567 41.8379 9.56602 41.8379 9.56602Z" fill="#182B5A"/>
  </g>
  <defs>
    <clipPath id="clip0_130_0">
      <rect width="42" height="49" fill="white"/>
    </clipPath>
  </defs>
</svg>