<svg xmlns="http://www.w3.org/2000/svg" width="26" height="25" viewBox="0 0 26 25" fill="none">
  <path d="M0 12.5132C0 20.7761 6.67423 25 14.2062 25C16.1897 25 18.1732 24.736 20.1299 24.0496V21.0137C18.2268 21.6209 16.2433 21.9377 14.3134 21.9377C8.38969 21.9377 3.40412 18.9018 3.40412 12.5132C3.40412 7.57656 6.96907 3.0623 13.268 3.0623C19.5402 3.0623 22.5959 7.60296 22.5959 11.4572C22.5959 13.9124 22.1134 15.9715 20.3175 15.9715C18.9505 15.9715 18.468 15.1531 18.468 13.9124V7.39176H15.6268V8.84372C14.9299 7.86695 13.7773 7.07497 11.9814 7.07497C8.57732 7.07497 6.86186 9.79409 6.86186 12.566C6.86186 15.3115 8.65773 18.0306 11.9278 18.0306C13.7505 18.0306 15.0103 17.2122 15.7072 16.0243C16.3237 17.661 17.9856 18.6906 20.1299 18.6906C23.6412 18.6906 26 16.3675 26 11.4572C26 6.3622 21.8454 0 13.268 0C4.66392 0 0 6.09821 0 12.5132ZM15.332 11.5364V13.5956C14.9835 14.5459 14.0454 15.4171 12.7052 15.4171C11.0433 15.4171 10.0784 14.0971 10.0784 12.566C10.0784 11.0348 11.0433 9.71489 12.7052 9.71489C14.0454 9.71489 14.9835 10.5597 15.332 11.5364Z" fill="#182B5A"/>
</svg>