<svg xmlns="http://www.w3.org/2000/svg" width="18" height="25" viewBox="0 0 18 25" fill="none">
  <g clip-path="url(#clip0_24_43)">
    <path d="M8.841 0C3.95042 0 -0.0288086 4.11684 -0.0288086 9.17704C-0.0288086 10.4969 0.232314 11.7571 0.746917 12.923C2.96462 17.9436 7.21656 23.2444 8.46719 24.7492C8.56089 24.8617 8.69749 24.9265 8.84125 24.9265C8.985 24.9265 9.1216 24.8617 9.2153 24.7492C10.4654 23.2446 14.7174 17.9441 16.9358 12.923C17.4507 11.7571 17.7115 10.4969 17.7115 9.17704C17.7111 4.11684 13.7318 0 8.841 0ZM8.841 13.9436C6.30053 13.9436 4.23349 11.8051 4.23349 9.17679C4.23349 6.54821 6.30053 4.40969 8.841 4.40969C11.3815 4.40969 13.4485 6.54821 13.4485 9.17679C13.4488 11.8051 11.3817 13.9436 8.841 13.9436Z" fill="#182B5A"/>
  </g>
  <defs>
    <clipPath id="clip0_24_43">
      <rect width="18" height="25" fill="white"/>
    </clipPath>
  </defs>
</svg>