<svg xmlns="http://www.w3.org/2000/svg" width="25" height="25" viewBox="0 0 25 25" fill="none">
  <g clip-path="url(#clip0_24_38)">
    <path d="M24.9456 19.3704C24.8749 19.1574 24.425 18.8435 23.5963 18.4296C23.3718 18.2991 23.0519 18.1218 22.6379 17.8969C22.2236 17.6719 21.8476 17.4646 21.5104 17.2752C21.1726 17.0858 20.8561 16.9024 20.5604 16.7251C20.5132 16.6896 20.3652 16.5862 20.1166 16.4141C19.8678 16.2426 19.658 16.1153 19.486 16.0323C19.3145 15.9498 19.1457 15.9082 18.9799 15.9082C18.7432 15.9082 18.4476 16.077 18.0926 16.4141C17.7376 16.7517 17.412 17.1184 17.1162 17.5153C16.8204 17.912 16.5067 18.2786 16.1756 18.616C15.844 18.9535 15.5715 19.1221 15.3587 19.1221C15.2519 19.1221 15.1187 19.0923 14.959 19.0336C14.7994 18.9744 14.6781 18.9237 14.5947 18.8829C14.5121 18.8411 14.3704 18.7586 14.169 18.6339C13.9673 18.5095 13.8551 18.4415 13.8315 18.4296C12.2099 17.5298 10.8191 16.4999 9.659 15.3403C8.49923 14.1799 7.46925 12.7893 6.56968 11.1675C6.55786 11.1438 6.48964 11.0313 6.36545 10.8302C6.24107 10.6289 6.15817 10.4871 6.11675 10.404C6.07534 10.3212 6.02503 10.1998 5.96595 10.04C5.90687 9.88027 5.8772 9.74719 5.8772 9.64053C5.8772 9.4276 6.04592 9.15521 6.3833 8.82374C6.72061 8.49246 7.08765 8.17865 7.48405 7.88294C7.88076 7.58723 8.24743 7.2616 8.58486 6.90663C8.92218 6.55146 9.09084 6.25569 9.09084 6.019C9.09084 5.85339 9.04942 5.68454 8.96664 5.51296C8.88381 5.34101 8.75657 5.13118 8.58486 4.88249C8.4131 4.63392 8.30955 4.48609 8.27398 4.43852C8.09661 4.14281 7.91334 3.8262 7.72373 3.48882C7.53411 3.15151 7.32715 2.77551 7.10214 2.36127C6.87733 1.94721 6.6999 1.6275 6.56955 1.40262C6.1555 0.574194 5.84188 0.124192 5.62875 0.0534207C5.54586 0.0179105 5.42148 0 5.25593 0C4.93615 0 4.51899 0.0590799 4.00412 0.177613C3.48907 0.295959 3.08378 0.420089 2.78782 0.5505C2.19596 0.798947 1.56866 1.52097 0.905721 2.71631C0.302049 3.82875 0.000244141 4.92981 0.000244141 6.01869C0.000244141 6.33803 0.0209532 6.64873 0.0623713 6.95084C0.103789 7.25265 0.177795 7.59301 0.28445 7.97187C0.390918 8.3506 0.476801 8.63195 0.541727 8.81516C0.606715 8.99849 0.728046 9.32691 0.905659 9.80055C1.08302 10.2741 1.18968 10.5639 1.22519 10.6705C1.63943 11.8305 2.13067 12.8662 2.69877 13.7777C3.63347 15.2927 4.90904 16.8585 6.52472 18.4743C8.14046 20.09 9.70589 21.3655 11.2211 22.3005C12.1325 22.8686 13.1685 23.3598 14.3284 23.7743C14.435 23.8096 14.7248 23.916 15.1981 24.094C15.6717 24.2715 16.0002 24.3928 16.1835 24.458C16.3669 24.5231 16.6483 24.6091 17.0268 24.7157C17.406 24.8224 17.746 24.8964 18.0478 24.9381C18.3498 24.979 18.6606 25.0001 18.98 25.0001C20.0688 25.0001 21.1699 24.6981 22.2826 24.0945C23.4778 23.4318 24.1996 22.8043 24.4482 22.2121C24.5789 21.9164 24.7027 21.511 24.8211 20.9959C24.9398 20.4811 24.9988 20.064 24.9988 19.7443C24.9991 19.5781 24.9813 19.454 24.9456 19.3704Z" fill="#182B5A"/>
  </g>
  <defs>
    <clipPath id="clip0_24_38">
      <rect width="25" height="25" fill="white"/>
    </clipPath>
  </defs>
</svg>